<svg xmlns="http://www.w3.org/2000/svg" width="1099" height="334.762" viewBox="0 0 1099 334.762">
  <g id="Grupo_1764" data-name="Grupo 1764" transform="translate(-102 -25042.648)">
    <g id="Grupo_1757" data-name="Grupo 1757" transform="translate(9.574 2988.98)">
      <path id="Caminho_1304" data-name="Caminho 1304" d="M.425,132.239V99.609A17.123,17.123,0,0,1,17.548,82.486H337.712a22.616,22.616,0,0,0,22.615-22.615V.426" transform="translate(265 22146.189)" fill="none" stroke="#0e295b" stroke-linecap="round" stroke-linejoin="round" stroke-width="3"/>
      <path id="Caminho_1305" data-name="Caminho 1305" d="M360.325,132.239V99.609A17.123,17.123,0,0,0,343.2,82.486H23.04A22.615,22.615,0,0,1,.425,59.871V.426" transform="translate(676 22146.189)" fill="none" stroke="#0e295b" stroke-linecap="round" stroke-linejoin="round" stroke-width="3"/>
    </g>
    <path id="Caminho_1306" data-name="Caminho 1306" d="M.425,170.879V122.438A18.105,18.105,0,0,1,18.53,104.333H136.465A18.105,18.105,0,0,0,154.57,86.228V.426" transform="translate(496.506 25135.598)" fill="none" stroke="#0e295b" stroke-linecap="round" stroke-linejoin="round" stroke-width="3"/>
    <path id="Caminho_1307" data-name="Caminho 1307" d="M154.57,170.879V122.438a18.105,18.105,0,0,0-18.1-18.1H18.53a18.105,18.105,0,0,1-18.1-18.1V.426" transform="translate(670.438 25135.598)" fill="none" stroke="#0e295b" stroke-linecap="round" stroke-linejoin="round" stroke-width="3"/>
    <g id="Grupo_1737" data-name="Grupo 1737" transform="translate(-35.781 93.41)">
      <g id="Retângulo_1074" data-name="Retângulo 1074" transform="translate(137.781 25174)" fill="#fadbbf" stroke="#0e295b" stroke-width="3">
        <rect width="261" height="110" rx="40" stroke="none"/>
        <rect x="1.5" y="1.5" width="258" height="107" rx="38.5" fill="none"/>
      </g>
      <g id="Retângulo_1075" data-name="Retângulo 1075" transform="translate(416.781 25174)" fill="#fadbbf" stroke="#0e295b" stroke-width="3">
        <rect width="260" height="110" rx="40" stroke="none"/>
        <rect x="1.5" y="1.5" width="257" height="107" rx="38.5" fill="none"/>
      </g>
      <g id="Retângulo_1076" data-name="Retângulo 1076" transform="translate(694.781 25174)" fill="#fadbbf" stroke="#0e295b" stroke-width="3">
        <rect width="262" height="110" rx="40" stroke="none"/>
        <rect x="1.5" y="1.5" width="259" height="107" rx="38.5" fill="none"/>
      </g>
      <g id="Retângulo_1080" data-name="Retângulo 1080" transform="translate(974.781 25174)" fill="#fadbbf" stroke="#0e295b" stroke-width="3">
        <rect width="262" height="110" rx="40" stroke="none"/>
        <rect x="1.5" y="1.5" width="259" height="107" rx="38.5" fill="none"/>
      </g>
    </g>
    <path id="Caminho_1327" data-name="Caminho 1327" d="M29.183,19h-3.65q0-4.15.275-8.387t.825-8.488h4.525l3.95,10.25,3.95-10.25h4.45q.55,4.225.825,8.45T44.608,19h-3.7v-.75q0-1.325-.025-2.863T40.746,11.9q-.113-1.95-.413-4.525l-3.7,9.825H33.508l-3.75-9.95q-.325,2.7-.45,5.613T29.183,19Zm24.05.325a6.7,6.7,0,0,1-5-1.825,6.88,6.88,0,0,1-1.8-5.05,7.794,7.794,0,0,1,.775-3.575,5.856,5.856,0,0,1,2.175-2.387,6.069,6.069,0,0,1,3.25-.863A5.18,5.18,0,0,1,56.758,7.35a7,7,0,0,1,1.5,4.75v1.625h-8.15q.6,2.65,3.65,2.65a7.473,7.473,0,0,0,1.95-.263,6.229,6.229,0,0,0,1.725-.737V18.3a5.951,5.951,0,0,1-1.838.75A9.817,9.817,0,0,1,53.233,19.325ZM50.058,11.2h4.7a3.28,3.28,0,0,0-.65-2.038,2.042,2.042,0,0,0-1.65-.712Q50.408,8.45,50.058,11.2Zm14.925,8.125a4.879,4.879,0,0,1-2.813-.825A5.318,5.318,0,0,1,60.3,16.15a9.054,9.054,0,0,1-.662-3.625,9.066,9.066,0,0,1,.675-3.663,5.525,5.525,0,0,1,1.9-2.388,4.833,4.833,0,0,1,2.825-.85A4.168,4.168,0,0,1,68.383,7.1V1h3.8V19H68.858l-.2-1.575a3.773,3.773,0,0,1-1.512,1.4A4.62,4.62,0,0,1,64.983,19.325Zm1-3.075a2.1,2.1,0,0,0,1.837-.988,4.923,4.923,0,0,0,.663-2.762,5.041,5.041,0,0,0-.663-2.8,2.2,2.2,0,0,0-3.675-.013,4.923,4.923,0,0,0-.663,2.762,5.041,5.041,0,0,0,.663,2.8A2.088,2.088,0,0,0,65.983,16.25ZM74.733,19V5.95h3.8V19Zm1.9-14.575a2.17,2.17,0,0,1-1.562-.613,2.043,2.043,0,0,1-.638-1.538A2.043,2.043,0,0,1,75.071.737a2.315,2.315,0,0,1,3.137,0,2.064,2.064,0,0,1,.625,1.538,2.064,2.064,0,0,1-.625,1.538A2.158,2.158,0,0,1,76.633,4.425Zm9.225,14.9a4.879,4.879,0,0,1-2.812-.825,5.318,5.318,0,0,1-1.875-2.35,9.054,9.054,0,0,1-.663-3.625,9.066,9.066,0,0,1,.675-3.663,5.525,5.525,0,0,1,1.9-2.388,4.833,4.833,0,0,1,2.825-.85A4.168,4.168,0,0,1,89.258,7.1V1h3.8V19H89.733l-.2-1.575a3.773,3.773,0,0,1-1.512,1.4A4.62,4.62,0,0,1,85.858,19.325Zm1-3.075a2.1,2.1,0,0,0,1.837-.988,4.923,4.923,0,0,0,.663-2.762A5.041,5.041,0,0,0,88.7,9.7a2.2,2.2,0,0,0-3.675-.013,4.924,4.924,0,0,0-.662,2.762,5.041,5.041,0,0,0,.662,2.8A2.088,2.088,0,0,0,86.858,16.25Zm12.45,3.075a4.512,4.512,0,0,1-3.1-1.038A3.532,3.532,0,0,1,95.033,15.5a4.018,4.018,0,0,1,1.725-3.463,8.265,8.265,0,0,1,4.875-1.237q.275,0,.55.012t.55.037q-.25-2.2-2.825-2.2a6.227,6.227,0,0,0-3.7,1.175V6.85a7.215,7.215,0,0,1,4.325-1.225,5.878,5.878,0,0,1,4.3,1.475,5.661,5.661,0,0,1,1.5,4.225V19h-3.1l-.2-1.375a3.834,3.834,0,0,1-1.563,1.25A5.153,5.153,0,0,1,99.308,19.325Zm3.45-6.125q-.375-.025-.95-.025a4.733,4.733,0,0,0-2.362.488,1.527,1.527,0,0,0-.838,1.387,1.565,1.565,0,0,0,.5,1.225,1.906,1.906,0,0,0,1.325.45,2.2,2.2,0,0,0,1.65-.7,2.389,2.389,0,0,0,.675-1.725Zm15.075,6.125a4.879,4.879,0,0,1-2.812-.825,5.318,5.318,0,0,1-1.875-2.35,9.054,9.054,0,0,1-.663-3.625,9.066,9.066,0,0,1,.675-3.663,5.525,5.525,0,0,1,1.9-2.388,4.833,4.833,0,0,1,2.825-.85,4.168,4.168,0,0,1,3.35,1.475V1h3.8V19h-3.325l-.2-1.575a3.773,3.773,0,0,1-1.512,1.4A4.62,4.62,0,0,1,117.833,19.325Zm1-3.075a2.1,2.1,0,0,0,1.838-.988,4.924,4.924,0,0,0,.662-2.762,5.041,5.041,0,0,0-.662-2.8A2.2,2.2,0,0,0,117,9.687a4.924,4.924,0,0,0-.662,2.762,5.041,5.041,0,0,0,.662,2.8A2.088,2.088,0,0,0,118.833,16.25Zm14.975,3.075a6.7,6.7,0,0,1-5-1.825,6.88,6.88,0,0,1-1.8-5.05,7.794,7.794,0,0,1,.775-3.575,5.856,5.856,0,0,1,2.175-2.387,6.069,6.069,0,0,1,3.25-.863,5.18,5.18,0,0,1,4.125,1.725,7,7,0,0,1,1.5,4.75v1.625h-8.15q.6,2.65,3.65,2.65a7.473,7.473,0,0,0,1.95-.263,6.229,6.229,0,0,0,1.725-.737V18.3a5.951,5.951,0,0,1-1.837.75A9.817,9.817,0,0,1,133.808,19.325ZM130.633,11.2h4.7a3.28,3.28,0,0,0-.65-2.038,2.042,2.042,0,0,0-1.65-.712Q130.983,8.45,130.633,11.2Zm14.4,7.8V5.95h3.325l.2,1.5a4.427,4.427,0,0,1,3.775-1.825,4.134,4.134,0,0,1,3.275,1.4,5.416,5.416,0,0,1,1.225,3.7V19h-3.8V11.325q0-2.55-2.05-2.55a1.944,1.944,0,0,0-1.575.688,2.812,2.812,0,0,0-.575,1.863V19Zm14.275,0V5.95h3.8V19ZM166.058.375l-3.5,3.975h-3.3L161.983.375ZM173.083,19h-3.7a65.317,65.317,0,0,1-2.775-6.538,60.916,60.916,0,0,1-1.95-6.512h4.1q.4,2.35.988,4.712a40.261,40.261,0,0,0,1.512,4.762,45.382,45.382,0,0,0,1.5-4.762q.6-2.362,1-4.712h4.05a55.406,55.406,0,0,1-1.9,6.437A64.267,64.267,0,0,1,173.083,19Zm11.9.325a6.7,6.7,0,0,1-5-1.825,6.88,6.88,0,0,1-1.8-5.05,7.794,7.794,0,0,1,.775-3.575,5.856,5.856,0,0,1,2.175-2.387,6.069,6.069,0,0,1,3.25-.863,5.18,5.18,0,0,1,4.125,1.725,7,7,0,0,1,1.5,4.75v1.625h-8.15q.6,2.65,3.65,2.65a7.473,7.473,0,0,0,1.95-.263,6.229,6.229,0,0,0,1.725-.737V18.3a5.951,5.951,0,0,1-1.837.75A9.817,9.817,0,0,1,184.983,19.325ZM181.808,11.2h4.7a3.28,3.28,0,0,0-.65-2.038,2.042,2.042,0,0,0-1.65-.712Q182.158,8.45,181.808,11.2Zm10.15,7.8V1h3.8V19Zm-165,30.325a10.686,10.686,0,0,1-2.325-.25,7.258,7.258,0,0,1-1.975-.725V45.375a7.027,7.027,0,0,0,1.863.8,7.742,7.742,0,0,0,2.037.275q2,0,2-1.225a.957.957,0,0,0-.513-.825,8.247,8.247,0,0,0-1.988-.725q-3.45-.975-3.45-3.95a3.531,3.531,0,0,1,1.512-2.975,6.61,6.61,0,0,1,4.038-1.125,8.558,8.558,0,0,1,1.837.2,5.6,5.6,0,0,1,1.538.55V39.3a6.946,6.946,0,0,0-3.275-.8q-1.925,0-1.925,1.125a.892.892,0,0,0,.475.775,8.314,8.314,0,0,0,1.9.7,5.637,5.637,0,0,1,2.8,1.513,3.72,3.72,0,0,1,.875,2.563,3.631,3.631,0,0,1-1.45,3.025A6.331,6.331,0,0,1,26.958,49.325Zm13.35,0a6.491,6.491,0,0,1-3.35-.838,5.7,5.7,0,0,1-2.213-2.375,8.708,8.708,0,0,1,0-7.237,5.74,5.74,0,0,1,2.225-2.4,7.047,7.047,0,0,1,6.688-.012,5.7,5.7,0,0,1,2.213,2.375,8.708,8.708,0,0,1,0,7.237,5.766,5.766,0,0,1-2.213,2.4A6.416,6.416,0,0,1,40.308,49.325Zm0-3.075a2.1,2.1,0,0,0,1.838-.987,4.923,4.923,0,0,0,.663-2.763,5.041,5.041,0,0,0-.663-2.8,2.2,2.2,0,0,0-3.675-.013,4.923,4.923,0,0,0-.663,2.763,5.041,5.041,0,0,0,.663,2.8A2.088,2.088,0,0,0,40.308,46.25Zm14.35,3.075a7.059,7.059,0,0,1-3.5-.825,5.686,5.686,0,0,1-2.287-2.362,7.682,7.682,0,0,1-.812-3.638,7.368,7.368,0,0,1,.85-3.6,6.093,6.093,0,0,1,2.362-2.413,6.967,6.967,0,0,1,3.513-.862,6.81,6.81,0,0,1,1.75.225,4.265,4.265,0,0,1,1.35.575V39.5a4.273,4.273,0,0,0-2.625-.8,3.141,3.141,0,0,0-2.463.988,3.988,3.988,0,0,0-.888,2.763,4.022,4.022,0,0,0,.913,2.775,3.131,3.131,0,0,0,2.462,1.025,4.3,4.3,0,0,0,2.75-.85v3.05a4.34,4.34,0,0,1-1.45.638A7.52,7.52,0,0,1,54.658,49.325Zm5.7-.325V35.95h3.8V49Zm1.9-14.575a2.17,2.17,0,0,1-1.562-.612,2.173,2.173,0,0,1,0-3.075,2.315,2.315,0,0,1,3.138,0,2.2,2.2,0,0,1,0,3.075A2.158,2.158,0,0,1,62.258,34.425Zm10.225,14.9a6.491,6.491,0,0,1-3.35-.838,5.7,5.7,0,0,1-2.212-2.375,8.708,8.708,0,0,1,0-7.237,5.74,5.74,0,0,1,2.225-2.4,7.047,7.047,0,0,1,6.688-.012,5.7,5.7,0,0,1,2.213,2.375,8.708,8.708,0,0,1,0,7.237,5.766,5.766,0,0,1-2.213,2.4A6.416,6.416,0,0,1,72.483,49.325Zm0-3.075a2.1,2.1,0,0,0,1.837-.987,4.923,4.923,0,0,0,.663-2.763,5.041,5.041,0,0,0-.663-2.8,2.2,2.2,0,0,0-3.675-.013,4.924,4.924,0,0,0-.662,2.763,5.041,5.041,0,0,0,.662,2.8A2.088,2.088,0,0,0,72.483,46.25Zm14.55,3.075a6.7,6.7,0,0,1-5-1.825,6.88,6.88,0,0,1-1.8-5.05,7.794,7.794,0,0,1,.775-3.575,5.856,5.856,0,0,1,2.175-2.388,6.069,6.069,0,0,1,3.25-.862,5.18,5.18,0,0,1,4.125,1.725,7,7,0,0,1,1.5,4.75v1.625h-8.15q.6,2.65,3.65,2.65a7.473,7.473,0,0,0,1.95-.263,6.229,6.229,0,0,0,1.725-.737V48.3a5.951,5.951,0,0,1-1.838.75A9.817,9.817,0,0,1,87.033,49.325ZM83.858,41.2h4.7a3.28,3.28,0,0,0-.65-2.038,2.042,2.042,0,0,0-1.65-.712Q84.208,38.45,83.858,41.2Zm16.175,8.125a7.059,7.059,0,0,1-3.5-.825,5.686,5.686,0,0,1-2.288-2.362,7.682,7.682,0,0,1-.812-3.638,7.368,7.368,0,0,1,.85-3.6,6.093,6.093,0,0,1,2.362-2.413,6.967,6.967,0,0,1,3.513-.862,6.81,6.81,0,0,1,1.75.225,4.265,4.265,0,0,1,1.35.575V39.5a4.273,4.273,0,0,0-2.625-.8,3.141,3.141,0,0,0-2.463.988,3.988,3.988,0,0,0-.887,2.763,4.022,4.022,0,0,0,.912,2.775,3.131,3.131,0,0,0,2.463,1.025,4.3,4.3,0,0,0,2.75-.85v3.05a4.34,4.34,0,0,1-1.45.638A7.52,7.52,0,0,1,100.033,49.325Zm11.175,0a6.491,6.491,0,0,1-3.35-.838,5.7,5.7,0,0,1-2.212-2.375,8.708,8.708,0,0,1,0-7.237,5.74,5.74,0,0,1,2.225-2.4,7.047,7.047,0,0,1,6.688-.012,5.7,5.7,0,0,1,2.213,2.375,8.708,8.708,0,0,1,0,7.237,5.766,5.766,0,0,1-2.213,2.4A6.416,6.416,0,0,1,111.208,49.325Zm0-3.075a2.1,2.1,0,0,0,1.838-.987,4.924,4.924,0,0,0,.662-2.763,5.041,5.041,0,0,0-.662-2.8,2.2,2.2,0,0,0-3.675-.013,4.924,4.924,0,0,0-.662,2.763,5.041,5.041,0,0,0,.662,2.8A2.088,2.088,0,0,0,111.208,46.25ZM119.533,49V35.95h3.325l.2,1.5a4.427,4.427,0,0,1,3.775-1.825,4.134,4.134,0,0,1,3.275,1.4,5.416,5.416,0,0,1,1.225,3.7V49h-3.8V41.325q0-2.55-2.05-2.55a1.944,1.944,0,0,0-1.575.688,2.812,2.812,0,0,0-.575,1.862V49Zm20.05.325a6.491,6.491,0,0,1-3.35-.838,5.7,5.7,0,0,1-2.212-2.375,8.708,8.708,0,0,1,0-7.237,5.74,5.74,0,0,1,2.225-2.4,7.047,7.047,0,0,1,6.688-.012,5.7,5.7,0,0,1,2.213,2.375,8.708,8.708,0,0,1,0,7.237,5.766,5.766,0,0,1-2.213,2.4A6.416,6.416,0,0,1,139.583,49.325Zm0-3.075a2.1,2.1,0,0,0,1.837-.987,4.924,4.924,0,0,0,.663-2.763,5.041,5.041,0,0,0-.663-2.8,2.2,2.2,0,0,0-3.675-.013,4.924,4.924,0,0,0-.662,2.763,5.041,5.041,0,0,0,.662,2.8A2.088,2.088,0,0,0,139.583,46.25Zm4.525-11.9h-2.85l-1.675-2.025-1.675,2.025h-2.85l2.975-3.975h3.1Zm3.8,14.65V35.95h3.325l.175,1.325a4.2,4.2,0,0,1,1.513-1.225,4.485,4.485,0,0,1,1.962-.425,3.755,3.755,0,0,1,3.45,2.05,4.728,4.728,0,0,1,1.688-1.513,4.856,4.856,0,0,1,2.313-.537,3.823,3.823,0,0,1,3.013,1.287,5,5,0,0,1,1.137,3.438V49h-3.8V40.95q0-2.175-1.725-2.175a1.7,1.7,0,0,0-1.35.575,2.359,2.359,0,0,0-.5,1.6V49h-3.8V40.95q0-2.175-1.75-2.175a1.7,1.7,0,0,0-1.35.575,2.359,2.359,0,0,0-.5,1.6V49Zm21.05,0V35.95h3.8V49Zm1.9-14.575a2.17,2.17,0,0,1-1.562-.612,2.173,2.173,0,0,1,0-3.075,2.315,2.315,0,0,1,3.137,0,2.2,2.2,0,0,1,0,3.075A2.158,2.158,0,0,1,170.858,34.425Zm10.475,14.9a7.059,7.059,0,0,1-3.5-.825,5.686,5.686,0,0,1-2.288-2.362,7.682,7.682,0,0,1-.812-3.638,7.368,7.368,0,0,1,.85-3.6,6.093,6.093,0,0,1,2.363-2.413,6.967,6.967,0,0,1,3.512-.862,6.81,6.81,0,0,1,1.75.225,4.264,4.264,0,0,1,1.35.575V39.5a4.273,4.273,0,0,0-2.625-.8,3.141,3.141,0,0,0-2.462.988,3.988,3.988,0,0,0-.887,2.763,4.022,4.022,0,0,0,.912,2.775,3.131,3.131,0,0,0,2.463,1.025,4.3,4.3,0,0,0,2.75-.85v3.05a4.34,4.34,0,0,1-1.45.638A7.521,7.521,0,0,1,181.333,49.325Zm11.175,0a6.491,6.491,0,0,1-3.35-.838,5.7,5.7,0,0,1-2.212-2.375,8.708,8.708,0,0,1,0-7.237,5.74,5.74,0,0,1,2.225-2.4,7.047,7.047,0,0,1,6.688-.012,5.7,5.7,0,0,1,2.213,2.375,8.708,8.708,0,0,1,0,7.237,5.766,5.766,0,0,1-2.213,2.4A6.416,6.416,0,0,1,192.508,49.325Zm0-3.075a2.1,2.1,0,0,0,1.837-.987,4.924,4.924,0,0,0,.663-2.763,5.041,5.041,0,0,0-.663-2.8,2.2,2.2,0,0,0-3.675-.013,4.924,4.924,0,0,0-.662,2.763,5.041,5.041,0,0,0,.662,2.8A2.088,2.088,0,0,0,192.508,46.25Z" transform="translate(123.559 25293.895)" fill="#0e295b"/>
    <path id="Caminho_1328" data-name="Caminho 1328" d="M65.713,19h-3.65q0-4.15.275-8.387t.825-8.488h4.525l3.95,10.25,3.95-10.25h4.45q.55,4.225.825,8.45T81.137,19h-3.7v-.75q0-1.325-.025-2.863T77.275,11.9q-.113-1.95-.412-4.525l-3.7,9.825H70.037l-3.75-9.95q-.325,2.7-.45,5.613T65.713,19Zm24.05.325a6.7,6.7,0,0,1-5-1.825,6.88,6.88,0,0,1-1.8-5.05,7.794,7.794,0,0,1,.775-3.575,5.856,5.856,0,0,1,2.175-2.387,6.069,6.069,0,0,1,3.25-.863A5.18,5.18,0,0,1,93.287,7.35a7,7,0,0,1,1.5,4.75v1.625h-8.15q.6,2.65,3.65,2.65a7.472,7.472,0,0,0,1.95-.263,6.229,6.229,0,0,0,1.725-.737V18.3a5.951,5.951,0,0,1-1.837.75A9.817,9.817,0,0,1,89.762,19.325ZM86.587,11.2h4.7a3.28,3.28,0,0,0-.65-2.038,2.042,2.042,0,0,0-1.65-.712Q86.938,8.45,86.587,11.2Zm14.925,8.125A4.879,4.879,0,0,1,98.7,18.5a5.318,5.318,0,0,1-1.875-2.35,9.054,9.054,0,0,1-.663-3.625,9.066,9.066,0,0,1,.675-3.663,5.525,5.525,0,0,1,1.9-2.388,4.833,4.833,0,0,1,2.825-.85,4.168,4.168,0,0,1,3.35,1.475V1h3.8V19h-3.325l-.2-1.575a3.773,3.773,0,0,1-1.512,1.4A4.62,4.62,0,0,1,101.513,19.325Zm1-3.075a2.1,2.1,0,0,0,1.838-.988,4.924,4.924,0,0,0,.662-2.762,5.041,5.041,0,0,0-.662-2.8,2.2,2.2,0,0,0-3.675-.013,4.924,4.924,0,0,0-.662,2.762,5.041,5.041,0,0,0,.662,2.8A2.088,2.088,0,0,0,102.513,16.25Zm8.75,2.75V5.95h3.8V19Zm1.9-14.575a2.17,2.17,0,0,1-1.562-.613,2.043,2.043,0,0,1-.638-1.538A2.043,2.043,0,0,1,111.6.737a2.315,2.315,0,0,1,3.137,0,2.064,2.064,0,0,1,.625,1.538,2.064,2.064,0,0,1-.625,1.538A2.158,2.158,0,0,1,113.163,4.425Zm9.225,14.9a4.879,4.879,0,0,1-2.812-.825,5.318,5.318,0,0,1-1.875-2.35,9.054,9.054,0,0,1-.663-3.625,9.066,9.066,0,0,1,.675-3.663,5.525,5.525,0,0,1,1.9-2.388,4.833,4.833,0,0,1,2.825-.85,4.168,4.168,0,0,1,3.35,1.475V1h3.8V19h-3.325l-.2-1.575a3.773,3.773,0,0,1-1.512,1.4A4.62,4.62,0,0,1,122.388,19.325Zm1-3.075a2.1,2.1,0,0,0,1.838-.988,4.924,4.924,0,0,0,.662-2.762,5.041,5.041,0,0,0-.662-2.8,2.2,2.2,0,0,0-3.675-.013,4.924,4.924,0,0,0-.662,2.762,5.041,5.041,0,0,0,.662,2.8A2.088,2.088,0,0,0,123.388,16.25Zm12.45,3.075a4.512,4.512,0,0,1-3.1-1.038,3.532,3.532,0,0,1-1.175-2.788,4.018,4.018,0,0,1,1.725-3.463,8.265,8.265,0,0,1,4.875-1.237q.275,0,.55.012t.55.037q-.25-2.2-2.825-2.2a6.227,6.227,0,0,0-3.7,1.175V6.85a7.215,7.215,0,0,1,4.325-1.225,5.878,5.878,0,0,1,4.3,1.475,5.661,5.661,0,0,1,1.5,4.225V19h-3.1l-.2-1.375A3.834,3.834,0,0,1,138,18.875,5.153,5.153,0,0,1,135.838,19.325Zm3.45-6.125q-.375-.025-.95-.025a4.733,4.733,0,0,0-2.363.488,1.527,1.527,0,0,0-.838,1.387,1.565,1.565,0,0,0,.5,1.225,1.906,1.906,0,0,0,1.325.45,2.2,2.2,0,0,0,1.65-.7,2.39,2.39,0,0,0,.675-1.725ZM24.375,52.1h-3.4A16.287,16.287,0,0,1,18.7,47.438a18.122,18.122,0,0,1,0-10.65,16.287,16.287,0,0,1,2.275-4.662h3.4a18.785,18.785,0,0,0,0,19.975ZM31.5,49.325A7.059,7.059,0,0,1,28,48.5a5.686,5.686,0,0,1-2.287-2.362A7.682,7.682,0,0,1,24.9,42.5a7.368,7.368,0,0,1,.85-3.6,6.093,6.093,0,0,1,2.363-2.413,6.967,6.967,0,0,1,3.513-.862,6.81,6.81,0,0,1,1.75.225,4.265,4.265,0,0,1,1.35.575V39.5a4.273,4.273,0,0,0-2.625-.8,3.141,3.141,0,0,0-2.463.988,3.988,3.988,0,0,0-.888,2.763,4.022,4.022,0,0,0,.913,2.775,3.131,3.131,0,0,0,2.462,1.025,4.3,4.3,0,0,0,2.75-.85v3.05a4.34,4.34,0,0,1-1.45.638A7.52,7.52,0,0,1,31.5,49.325Zm9.4,0a4.512,4.512,0,0,1-3.1-1.038A3.532,3.532,0,0,1,36.625,45.5a4.018,4.018,0,0,1,1.725-3.463A8.265,8.265,0,0,1,43.225,40.8q.275,0,.55.013t.55.037q-.25-2.2-2.825-2.2a6.227,6.227,0,0,0-3.7,1.175V36.85a7.215,7.215,0,0,1,4.325-1.225,5.878,5.878,0,0,1,4.3,1.475,5.661,5.661,0,0,1,1.5,4.225V49h-3.1l-.2-1.375a3.834,3.834,0,0,1-1.562,1.25A5.153,5.153,0,0,1,40.9,49.325ZM44.35,43.2q-.375-.025-.95-.025a4.733,4.733,0,0,0-2.362.487A1.527,1.527,0,0,0,40.2,45.05a1.565,1.565,0,0,0,.5,1.225,1.906,1.906,0,0,0,1.325.45,2.2,2.2,0,0,0,1.65-.7A2.39,2.39,0,0,0,44.35,44.3Zm11.325,6.05q-4.65,0-4.65-4.725V38.85h-2v-2.9h2v-3.4h3.8v3.4h2.75v2.9h-2.75v5.325q0,2.05,1.65,2.05a2.9,2.9,0,0,0,1.4-.325v2.925a6.754,6.754,0,0,1-1.037.3A5.574,5.574,0,0,1,55.675,49.25Zm10.025.075a6.7,6.7,0,0,1-5-1.825,6.88,6.88,0,0,1-1.8-5.05,7.794,7.794,0,0,1,.775-3.575,5.856,5.856,0,0,1,2.175-2.388,6.069,6.069,0,0,1,3.25-.862,5.18,5.18,0,0,1,4.125,1.725,7,7,0,0,1,1.5,4.75v1.625h-8.15q.6,2.65,3.65,2.65a7.473,7.473,0,0,0,1.95-.263,6.229,6.229,0,0,0,1.725-.737V48.3a5.951,5.951,0,0,1-1.838.75A9.817,9.817,0,0,1,65.7,49.325ZM62.525,41.2h4.7a3.28,3.28,0,0,0-.65-2.038,2.042,2.042,0,0,0-1.65-.712Q62.875,38.45,62.525,41.2ZM77.8,53.95a8.935,8.935,0,0,1-2.287-.3,8.314,8.314,0,0,1-2.013-.8V49.775a6.5,6.5,0,0,0,1.825.813,7.473,7.473,0,0,0,2.025.287q3.525,0,3.525-3.5V47.25a4.265,4.265,0,0,1-3.425,1.5,5.031,5.031,0,0,1-2.825-.787,5.176,5.176,0,0,1-1.862-2.225,7.964,7.964,0,0,1-.663-3.362,8.544,8.544,0,0,1,.688-3.562,5.476,5.476,0,0,1,1.938-2.35,5.174,5.174,0,0,1,2.95-.838,4.178,4.178,0,0,1,3.625,1.75l.2-1.425h3.175V46.975a7.042,7.042,0,0,1-1.787,5.163A6.827,6.827,0,0,1,77.8,53.95Zm.7-8.1a2.064,2.064,0,0,0,1.8-.95,4.5,4.5,0,0,0,.65-2.575,4.654,4.654,0,0,0-.662-2.65,2.08,2.08,0,0,0-1.812-.975,2.149,2.149,0,0,0-1.85.95,4.516,4.516,0,0,0-.675,2.65,4.31,4.31,0,0,0,.7,2.588A2.181,2.181,0,0,0,78.5,45.85ZM93,49.325a6.491,6.491,0,0,1-3.35-.838,5.7,5.7,0,0,1-2.212-2.375,8.708,8.708,0,0,1,0-7.237,5.74,5.74,0,0,1,2.225-2.4,7.047,7.047,0,0,1,6.688-.012,5.7,5.7,0,0,1,2.213,2.375,8.708,8.708,0,0,1,0,7.237,5.766,5.766,0,0,1-2.213,2.4A6.416,6.416,0,0,1,93,49.325Zm0-3.075a2.1,2.1,0,0,0,1.838-.987A4.924,4.924,0,0,0,95.5,42.5a5.041,5.041,0,0,0-.662-2.8,2.2,2.2,0,0,0-3.675-.013A4.924,4.924,0,0,0,90.5,42.45a5.041,5.041,0,0,0,.662,2.8A2.088,2.088,0,0,0,93,46.25ZM101.325,49V35.95h3.325l.25,1.875a4.1,4.1,0,0,1,1.263-1.55,2.809,2.809,0,0,1,1.688-.575,2.5,2.5,0,0,1,1,.175V39.4a2.38,2.38,0,0,0-1.075-.225,2.411,2.411,0,0,0-1.937.838,3.458,3.458,0,0,0-.713,2.313V49Zm9.5,0V35.95h3.8V49Zm1.9-14.575a2.17,2.17,0,0,1-1.562-.612,2.173,2.173,0,0,1,0-3.075,2.315,2.315,0,0,1,3.137,0,2.2,2.2,0,0,1,0,3.075A2.158,2.158,0,0,1,112.725,34.425ZM116.8,49V46.475l6.05-7.575H117.1V35.95h10.425v2.525L121.45,46.05h6.375V49Zm16.75.325a4.512,4.512,0,0,1-3.1-1.038,3.532,3.532,0,0,1-1.175-2.787A4.018,4.018,0,0,1,131,42.037a8.265,8.265,0,0,1,4.875-1.237q.275,0,.55.013t.55.037q-.25-2.2-2.825-2.2a6.227,6.227,0,0,0-3.7,1.175V36.85a7.215,7.215,0,0,1,4.325-1.225,5.878,5.878,0,0,1,4.3,1.475,5.661,5.661,0,0,1,1.5,4.225V49h-3.1l-.2-1.375a3.834,3.834,0,0,1-1.562,1.25A5.153,5.153,0,0,1,133.55,49.325ZM137,43.2q-.375-.025-.95-.025a4.733,4.733,0,0,0-2.363.487,1.527,1.527,0,0,0-.838,1.388,1.565,1.565,0,0,0,.5,1.225,1.906,1.906,0,0,0,1.325.45,2.2,2.2,0,0,0,1.65-.7A2.39,2.39,0,0,0,137,44.3Zm12.075,6.125a7.059,7.059,0,0,1-3.5-.825,5.686,5.686,0,0,1-2.288-2.362,7.682,7.682,0,0,1-.812-3.638,7.368,7.368,0,0,1,.85-3.6,6.093,6.093,0,0,1,2.363-2.413,6.967,6.967,0,0,1,3.512-.862,6.81,6.81,0,0,1,1.75.225,4.264,4.264,0,0,1,1.35.575V39.5a4.273,4.273,0,0,0-2.625-.8,3.141,3.141,0,0,0-2.462.988,3.988,3.988,0,0,0-.887,2.763,4.022,4.022,0,0,0,.912,2.775A3.131,3.131,0,0,0,149.7,46.25a4.3,4.3,0,0,0,2.75-.85v3.05a4.34,4.34,0,0,1-1.45.638A7.521,7.521,0,0,1,149.075,49.325Zm-1.6-.575h2.1L149.1,50.4a2.968,2.968,0,0,1,1.875.775,2.2,2.2,0,0,1,.7,1.65,2.406,2.406,0,0,1-1.012,2.063,4.8,4.8,0,0,1-2.863.737,6.552,6.552,0,0,1-1.625-.225V53.5a4.157,4.157,0,0,0,.7.138,5.756,5.756,0,0,0,.6.037q1.45,0,1.45-.925,0-.85-1.525-.85h-.775Zm11,.575a4.512,4.512,0,0,1-3.1-1.038A3.532,3.532,0,0,1,154.2,45.5a4.018,4.018,0,0,1,1.725-3.463A8.265,8.265,0,0,1,160.8,40.8q.275,0,.55.013t.55.037q-.25-2.2-2.825-2.2a6.227,6.227,0,0,0-3.7,1.175V36.85a7.215,7.215,0,0,1,4.325-1.225A5.878,5.878,0,0,1,164,37.1a5.661,5.661,0,0,1,1.5,4.225V49h-3.1l-.2-1.375a3.834,3.834,0,0,1-1.562,1.25A5.153,5.153,0,0,1,158.475,49.325Zm3.45-6.125q-.375-.025-.95-.025a4.733,4.733,0,0,0-2.363.487,1.527,1.527,0,0,0-.838,1.388,1.565,1.565,0,0,0,.5,1.225,1.906,1.906,0,0,0,1.325.45,2.2,2.2,0,0,0,1.65-.7,2.39,2.39,0,0,0,.675-1.725Zm.175-8.825a2.687,2.687,0,0,1-1.363-.338q-.588-.337-1.062-.675a1.548,1.548,0,0,0-.875-.338q-.7,0-.7,1.1v.2h-2.325v-.2a4.316,4.316,0,0,1,.7-2.663,2.4,2.4,0,0,1,2.025-.912,2.756,2.756,0,0,1,1.375.337,10.731,10.731,0,0,1,1.063.675,1.494,1.494,0,0,0,.863.338q.7,0,.7-1.1v-.2h2.325v.2a4.316,4.316,0,0,1-.7,2.663A2.4,2.4,0,0,1,162.1,34.375Zm11.65,14.95a6.491,6.491,0,0,1-3.35-.838,5.7,5.7,0,0,1-2.212-2.375,8.708,8.708,0,0,1,0-7.237,5.74,5.74,0,0,1,2.225-2.4,7.047,7.047,0,0,1,6.688-.012,5.7,5.7,0,0,1,2.213,2.375,8.708,8.708,0,0,1,0,7.237,5.766,5.766,0,0,1-2.213,2.4A6.416,6.416,0,0,1,173.75,49.325Zm0-3.075a2.1,2.1,0,0,0,1.837-.987,4.924,4.924,0,0,0,.663-2.763,5.041,5.041,0,0,0-.663-2.8,2.2,2.2,0,0,0-3.675-.013,4.924,4.924,0,0,0-.662,2.763,5.041,5.041,0,0,0,.662,2.8A2.088,2.088,0,0,0,173.75,46.25Zm10.275,5.85h-3.4a18.785,18.785,0,0,0,0-19.975h3.4a16.321,16.321,0,0,1,2.275,4.65,18.122,18.122,0,0,1,0,10.65A16.254,16.254,0,0,1,184.025,52.1ZM58.3,79V65.95h3.325l.25,1.875a4.1,4.1,0,0,1,1.262-1.55,2.809,2.809,0,0,1,1.688-.575,2.5,2.5,0,0,1,1,.175V69.4a2.38,2.38,0,0,0-1.075-.225,2.411,2.411,0,0,0-1.937.837,3.458,3.458,0,0,0-.713,2.313V79Zm12.725.325a4.512,4.512,0,0,1-3.1-1.037A3.532,3.532,0,0,1,66.75,75.5a4.018,4.018,0,0,1,1.725-3.463A8.265,8.265,0,0,1,73.35,70.8q.275,0,.55.012t.55.037q-.25-2.2-2.825-2.2a6.227,6.227,0,0,0-3.7,1.175V66.85a7.215,7.215,0,0,1,4.325-1.225,5.878,5.878,0,0,1,4.3,1.475,5.661,5.661,0,0,1,1.5,4.225V79h-3.1l-.2-1.375a3.834,3.834,0,0,1-1.563,1.25A5.153,5.153,0,0,1,71.025,79.325Zm3.45-6.125q-.375-.025-.95-.025a4.733,4.733,0,0,0-2.362.487,1.527,1.527,0,0,0-.838,1.388,1.565,1.565,0,0,0,.5,1.225,1.906,1.906,0,0,0,1.325.45,2.2,2.2,0,0,0,1.65-.7,2.39,2.39,0,0,0,.675-1.725ZM86.55,79.325a7.059,7.059,0,0,1-3.5-.825,5.686,5.686,0,0,1-2.288-2.363A7.682,7.682,0,0,1,79.95,72.5a7.368,7.368,0,0,1,.85-3.6,6.093,6.093,0,0,1,2.362-2.412,6.967,6.967,0,0,1,3.513-.863,6.81,6.81,0,0,1,1.75.225,4.265,4.265,0,0,1,1.35.575V69.5a4.273,4.273,0,0,0-2.625-.8,3.141,3.141,0,0,0-2.463.988,4.709,4.709,0,0,0,.025,5.537,3.131,3.131,0,0,0,2.463,1.025,4.3,4.3,0,0,0,2.75-.85v3.05a4.34,4.34,0,0,1-1.45.638A7.52,7.52,0,0,1,86.55,79.325Zm-1.6-.575h2.1l-.475,1.65a2.968,2.968,0,0,1,1.875.775,2.2,2.2,0,0,1,.7,1.65,2.406,2.406,0,0,1-1.013,2.063,4.8,4.8,0,0,1-2.862.738A6.552,6.552,0,0,1,83.65,85.4V83.5a4.157,4.157,0,0,0,.7.137,5.756,5.756,0,0,0,.6.038q1.45,0,1.45-.925,0-.85-1.525-.85H84.1Zm11,.575a4.512,4.512,0,0,1-3.1-1.037A3.532,3.532,0,0,1,91.675,75.5,4.018,4.018,0,0,1,93.4,72.037,8.265,8.265,0,0,1,98.275,70.8q.275,0,.55.012t.55.037q-.25-2.2-2.825-2.2a6.227,6.227,0,0,0-3.7,1.175V66.85a7.215,7.215,0,0,1,4.325-1.225,5.878,5.878,0,0,1,4.3,1.475,5.661,5.661,0,0,1,1.5,4.225V79h-3.1l-.2-1.375a3.834,3.834,0,0,1-1.563,1.25A5.153,5.153,0,0,1,95.95,79.325ZM99.4,73.2q-.375-.025-.95-.025a4.733,4.733,0,0,0-2.362.487,1.527,1.527,0,0,0-.838,1.388,1.565,1.565,0,0,0,.5,1.225,1.906,1.906,0,0,0,1.325.45,2.2,2.2,0,0,0,1.65-.7A2.39,2.39,0,0,0,99.4,74.3Zm8.075,8.175H104.35l6.175-19.25h3.125Zm12.775-2.05a7.059,7.059,0,0,1-3.5-.825,5.686,5.686,0,0,1-2.288-2.363,7.682,7.682,0,0,1-.812-3.637,7.368,7.368,0,0,1,.85-3.6,6.093,6.093,0,0,1,2.362-2.412,6.967,6.967,0,0,1,3.513-.863,6.81,6.81,0,0,1,1.75.225,4.265,4.265,0,0,1,1.35.575V69.5a4.273,4.273,0,0,0-2.625-.8,3.141,3.141,0,0,0-2.463.988,4.709,4.709,0,0,0,.025,5.537,3.131,3.131,0,0,0,2.463,1.025,4.3,4.3,0,0,0,2.75-.85v3.05a4.34,4.34,0,0,1-1.45.638A7.52,7.52,0,0,1,120.25,79.325Zm11.175,0a6.491,6.491,0,0,1-3.35-.837,5.7,5.7,0,0,1-2.212-2.375,8.708,8.708,0,0,1,0-7.238,5.74,5.74,0,0,1,2.225-2.4,7.047,7.047,0,0,1,6.688-.012,5.7,5.7,0,0,1,2.213,2.375,8.708,8.708,0,0,1,0,7.237,5.766,5.766,0,0,1-2.213,2.4A6.416,6.416,0,0,1,131.425,79.325Zm0-3.075a2.1,2.1,0,0,0,1.837-.988,4.923,4.923,0,0,0,.663-2.762,5.041,5.041,0,0,0-.663-2.8,2.2,2.2,0,0,0-3.675-.012,4.924,4.924,0,0,0-.662,2.762,5.041,5.041,0,0,0,.662,2.8A2.088,2.088,0,0,0,131.425,76.25ZM139.75,79V65.95h3.325l.25,1.875a4.1,4.1,0,0,1,1.262-1.55,2.809,2.809,0,0,1,1.688-.575,2.5,2.5,0,0,1,1,.175V69.4a2.38,2.38,0,0,0-1.075-.225,2.411,2.411,0,0,0-1.937.837,3.457,3.457,0,0,0-.713,2.313V79Z" transform="translate(406 25279.895)" fill="#0e295b"/>
    <path id="Caminho_1329" data-name="Caminho 1329" d="M57.946,19H54.3q0-4.15.275-8.387T55.4,2.125h4.525l3.95,10.25,3.95-10.25h4.45q.55,4.225.825,8.45T73.371,19h-3.7v-.75q0-1.325-.025-2.863T69.508,11.9Q69.4,9.95,69.1,7.375L65.4,17.2H62.271l-3.75-9.95q-.325,2.7-.45,5.613T57.946,19ZM82,19.325A6.7,6.7,0,0,1,77,17.5a6.88,6.88,0,0,1-1.8-5.05,7.794,7.794,0,0,1,.775-3.575,5.856,5.856,0,0,1,2.175-2.387,6.069,6.069,0,0,1,3.25-.863A5.18,5.18,0,0,1,85.521,7.35a7,7,0,0,1,1.5,4.75v1.625h-8.15q.6,2.65,3.65,2.65a7.472,7.472,0,0,0,1.95-.263,6.229,6.229,0,0,0,1.725-.737V18.3a5.951,5.951,0,0,1-1.838.75A9.817,9.817,0,0,1,82,19.325ZM78.821,11.2h4.7a3.28,3.28,0,0,0-.65-2.038,2.042,2.042,0,0,0-1.65-.712Q79.171,8.45,78.821,11.2Zm14.925,8.125a4.879,4.879,0,0,1-2.812-.825,5.318,5.318,0,0,1-1.875-2.35,9.054,9.054,0,0,1-.663-3.625,9.066,9.066,0,0,1,.675-3.663,5.525,5.525,0,0,1,1.9-2.388,4.833,4.833,0,0,1,2.825-.85A4.168,4.168,0,0,1,97.146,7.1V1h3.8V19H97.621l-.2-1.575a3.773,3.773,0,0,1-1.512,1.4A4.62,4.62,0,0,1,93.746,19.325Zm1-3.075a2.1,2.1,0,0,0,1.837-.988,4.923,4.923,0,0,0,.663-2.762,5.041,5.041,0,0,0-.663-2.8,2.2,2.2,0,0,0-3.675-.013,4.924,4.924,0,0,0-.662,2.762,5.041,5.041,0,0,0,.662,2.8A2.088,2.088,0,0,0,94.746,16.25ZM103.5,19V5.95h3.8V19Zm1.9-14.575a2.17,2.17,0,0,1-1.562-.613,2.043,2.043,0,0,1-.638-1.538,2.043,2.043,0,0,1,.638-1.538,2.315,2.315,0,0,1,3.137,0,2.064,2.064,0,0,1,.625,1.538,2.064,2.064,0,0,1-.625,1.538A2.158,2.158,0,0,1,105.4,4.425Zm9.225,14.9a4.879,4.879,0,0,1-2.812-.825,5.318,5.318,0,0,1-1.875-2.35,9.054,9.054,0,0,1-.663-3.625,9.066,9.066,0,0,1,.675-3.663,5.525,5.525,0,0,1,1.9-2.388,4.833,4.833,0,0,1,2.825-.85,4.168,4.168,0,0,1,3.35,1.475V1h3.8V19H118.5l-.2-1.575a3.773,3.773,0,0,1-1.512,1.4A4.62,4.62,0,0,1,114.621,19.325Zm1-3.075a2.1,2.1,0,0,0,1.837-.988,4.923,4.923,0,0,0,.663-2.762,5.041,5.041,0,0,0-.663-2.8,2.2,2.2,0,0,0-3.675-.013,4.924,4.924,0,0,0-.662,2.762,5.041,5.041,0,0,0,.662,2.8A2.088,2.088,0,0,0,115.621,16.25Zm12.45,3.075a4.512,4.512,0,0,1-3.1-1.038A3.532,3.532,0,0,1,123.8,15.5a4.018,4.018,0,0,1,1.725-3.463A8.265,8.265,0,0,1,130.4,10.8q.275,0,.55.012t.55.037q-.25-2.2-2.825-2.2a6.227,6.227,0,0,0-3.7,1.175V6.85A7.215,7.215,0,0,1,129.3,5.625,5.878,5.878,0,0,1,133.6,7.1a5.661,5.661,0,0,1,1.5,4.225V19H132l-.2-1.375a3.834,3.834,0,0,1-1.562,1.25A5.153,5.153,0,0,1,128.071,19.325Zm3.45-6.125q-.375-.025-.95-.025a4.733,4.733,0,0,0-2.363.488,1.527,1.527,0,0,0-.838,1.387,1.565,1.565,0,0,0,.5,1.225,1.906,1.906,0,0,0,1.325.45,2.2,2.2,0,0,0,1.65-.7,2.39,2.39,0,0,0,.675-1.725ZM146.6,19.325a4.879,4.879,0,0,1-2.812-.825,5.318,5.318,0,0,1-1.875-2.35,9.054,9.054,0,0,1-.663-3.625,9.066,9.066,0,0,1,.675-3.663,5.525,5.525,0,0,1,1.9-2.388,4.833,4.833,0,0,1,2.825-.85A4.167,4.167,0,0,1,150,7.1V1h3.8V19h-3.325l-.2-1.575a3.773,3.773,0,0,1-1.513,1.4A4.62,4.62,0,0,1,146.6,19.325Zm1-3.075a2.1,2.1,0,0,0,1.837-.988A4.924,4.924,0,0,0,150.1,12.5a5.041,5.041,0,0,0-.663-2.8,2.2,2.2,0,0,0-3.675-.013,4.924,4.924,0,0,0-.662,2.762,5.041,5.041,0,0,0,.662,2.8A2.088,2.088,0,0,0,147.6,16.25Zm14.975,3.075a6.7,6.7,0,0,1-5-1.825,6.88,6.88,0,0,1-1.8-5.05,7.794,7.794,0,0,1,.775-3.575,5.856,5.856,0,0,1,2.175-2.387,6.069,6.069,0,0,1,3.25-.863A5.18,5.18,0,0,1,166.1,7.35a7,7,0,0,1,1.5,4.75v1.625h-8.15q.6,2.65,3.65,2.65a7.473,7.473,0,0,0,1.95-.263,6.229,6.229,0,0,0,1.725-.737V18.3a5.951,5.951,0,0,1-1.837.75A9.817,9.817,0,0,1,162.571,19.325ZM159.4,11.2h4.7a3.28,3.28,0,0,0-.65-2.038,2.042,2.042,0,0,0-1.65-.712Q159.746,8.45,159.4,11.2ZM8.083,49.325A4.879,4.879,0,0,1,5.271,48.5,5.318,5.318,0,0,1,3.4,46.15a9.054,9.054,0,0,1-.663-3.625,9.066,9.066,0,0,1,.675-3.663,5.525,5.525,0,0,1,1.9-2.388,4.833,4.833,0,0,1,2.825-.85,4.167,4.167,0,0,1,3.35,1.475V31h3.8V49H11.958l-.2-1.575a3.773,3.773,0,0,1-1.513,1.4A4.62,4.62,0,0,1,8.083,49.325Zm1-3.075a2.1,2.1,0,0,0,1.838-.987,4.924,4.924,0,0,0,.663-2.763,5.041,5.041,0,0,0-.663-2.8,2.088,2.088,0,0,0-1.838-1,2.1,2.1,0,0,0-1.838.988,4.923,4.923,0,0,0-.662,2.763,5.041,5.041,0,0,0,.662,2.8A2.088,2.088,0,0,0,9.083,46.25Zm14.975,3.075a6.7,6.7,0,0,1-5-1.825,6.88,6.88,0,0,1-1.8-5.05,7.794,7.794,0,0,1,.775-3.575,5.856,5.856,0,0,1,2.175-2.388,6.069,6.069,0,0,1,3.25-.862,5.18,5.18,0,0,1,4.125,1.725,7,7,0,0,1,1.5,4.75v1.625h-8.15q.6,2.65,3.65,2.65a7.473,7.473,0,0,0,1.95-.263,6.229,6.229,0,0,0,1.725-.737V48.3a5.951,5.951,0,0,1-1.838.75A9.817,9.817,0,0,1,24.058,49.325ZM20.883,41.2h4.7a3.28,3.28,0,0,0-.65-2.038,2.042,2.042,0,0,0-1.65-.712Q21.233,38.45,20.883,41.2Zm14.375,8.125a10.686,10.686,0,0,1-2.325-.25,7.258,7.258,0,0,1-1.975-.725V45.375a7.027,7.027,0,0,0,1.863.8,7.742,7.742,0,0,0,2.037.275q2,0,2-1.225a.957.957,0,0,0-.513-.825,8.247,8.247,0,0,0-1.987-.725q-3.45-.975-3.45-3.95a3.531,3.531,0,0,1,1.512-2.975,6.61,6.61,0,0,1,4.038-1.125,8.558,8.558,0,0,1,1.837.2,5.6,5.6,0,0,1,1.538.55V39.3a6.946,6.946,0,0,0-3.275-.8q-1.925,0-1.925,1.125a.892.892,0,0,0,.475.775,8.314,8.314,0,0,0,1.9.7,5.637,5.637,0,0,1,2.8,1.513,3.72,3.72,0,0,1,.875,2.563,3.631,3.631,0,0,1-1.45,3.025A6.331,6.331,0,0,1,35.258,49.325Zm13.8,0a6.7,6.7,0,0,1-5-1.825,6.88,6.88,0,0,1-1.8-5.05,7.794,7.794,0,0,1,.775-3.575,5.856,5.856,0,0,1,2.175-2.388,6.069,6.069,0,0,1,3.25-.862,5.18,5.18,0,0,1,4.125,1.725,7,7,0,0,1,1.5,4.75v1.625h-8.15q.6,2.65,3.65,2.65a7.473,7.473,0,0,0,1.95-.263,6.229,6.229,0,0,0,1.725-.737V48.3a5.951,5.951,0,0,1-1.838.75A9.817,9.817,0,0,1,49.058,49.325ZM45.883,41.2h4.7a3.28,3.28,0,0,0-.65-2.038,2.042,2.042,0,0,0-1.65-.712Q46.233,38.45,45.883,41.2ZM56.033,49V35.95h3.325l.175,1.325a4.2,4.2,0,0,1,1.513-1.225,4.485,4.485,0,0,1,1.962-.425,3.755,3.755,0,0,1,3.45,2.05,4.728,4.728,0,0,1,1.688-1.513,4.856,4.856,0,0,1,2.313-.537,3.823,3.823,0,0,1,3.013,1.287,5,5,0,0,1,1.137,3.438V49h-3.8V40.95q0-2.175-1.725-2.175a1.7,1.7,0,0,0-1.35.575,2.359,2.359,0,0,0-.5,1.6V49h-3.8V40.95q0-2.175-1.75-2.175a1.7,1.7,0,0,0-1.35.575,2.359,2.359,0,0,0-.5,1.6V49Zm21.05,4.625V35.95h3.325l.2,1.6a3.892,3.892,0,0,1,1.537-1.425,4.675,4.675,0,0,1,2.188-.5,4.763,4.763,0,0,1,2.787.825,5.388,5.388,0,0,1,1.85,2.35,9.054,9.054,0,0,1,.662,3.625,9.087,9.087,0,0,1-.675,3.65,5.551,5.551,0,0,1-1.888,2.4,4.817,4.817,0,0,1-2.837.85,4.137,4.137,0,0,1-3.35-1.5v5.8Zm6.2-7.375a2.1,2.1,0,0,0,1.838-.987,4.924,4.924,0,0,0,.662-2.763,5.041,5.041,0,0,0-.662-2.8,2.2,2.2,0,0,0-3.675-.013,4.924,4.924,0,0,0-.662,2.763,5.041,5.041,0,0,0,.662,2.8A2.088,2.088,0,0,0,83.283,46.25Zm14.55,3.075a6.7,6.7,0,0,1-5-1.825,6.88,6.88,0,0,1-1.8-5.05,7.794,7.794,0,0,1,.775-3.575,5.856,5.856,0,0,1,2.175-2.388,6.069,6.069,0,0,1,3.25-.862,5.18,5.18,0,0,1,4.125,1.725,7,7,0,0,1,1.5,4.75v1.625h-8.15q.6,2.65,3.65,2.65a7.473,7.473,0,0,0,1.95-.263,6.229,6.229,0,0,0,1.725-.737V48.3a5.951,5.951,0,0,1-1.838.75A9.817,9.817,0,0,1,97.833,49.325ZM94.658,41.2h4.7a3.28,3.28,0,0,0-.65-2.038,2.042,2.042,0,0,0-1.65-.712Q95.008,38.45,94.658,41.2Zm10.15,7.8V35.95h3.325l.2,1.5a4.427,4.427,0,0,1,3.775-1.825,4.134,4.134,0,0,1,3.275,1.4,5.416,5.416,0,0,1,1.225,3.7V49h-3.8V41.325q0-2.55-2.05-2.55a1.944,1.944,0,0,0-1.575.688,2.812,2.812,0,0,0-.575,1.862V49Zm14.275,0V31h3.8v6.1a4.526,4.526,0,0,1,3.5-1.475,4.134,4.134,0,0,1,3.275,1.4,5.416,5.416,0,0,1,1.225,3.7V49h-3.8V41.325q0-2.55-2.05-2.55a1.944,1.944,0,0,0-1.575.688,2.812,2.812,0,0,0-.575,1.862V49Zm20.05.325a6.491,6.491,0,0,1-3.35-.838,5.7,5.7,0,0,1-2.212-2.375,8.708,8.708,0,0,1,0-7.237,5.74,5.74,0,0,1,2.225-2.4,7.047,7.047,0,0,1,6.688-.012,5.7,5.7,0,0,1,2.213,2.375,8.708,8.708,0,0,1,0,7.237,5.766,5.766,0,0,1-2.213,2.4A6.416,6.416,0,0,1,139.133,49.325Zm0-3.075a2.1,2.1,0,0,0,1.837-.987,4.924,4.924,0,0,0,.663-2.763,5.041,5.041,0,0,0-.663-2.8,2.2,2.2,0,0,0-3.675-.013,4.924,4.924,0,0,0-.662,2.763,5.041,5.041,0,0,0,.662,2.8A2.088,2.088,0,0,0,139.133,46.25Zm18.8,5.85h-3.4a16.287,16.287,0,0,1-2.275-4.662,18.122,18.122,0,0,1,0-10.65,16.287,16.287,0,0,1,2.275-4.662h3.4a18.785,18.785,0,0,0,0,19.975Zm6.325-2.775a10.5,10.5,0,0,1-5.15-1.175V44.775a12.768,12.768,0,0,0,2.35.975,7.878,7.878,0,0,0,2.25.35q2.8,0,2.8-1.85a1.486,1.486,0,0,0-.3-.937,3.044,3.044,0,0,0-1.05-.763,16.748,16.748,0,0,0-2.1-.825,6.37,6.37,0,0,1-2.937-1.862,4.291,4.291,0,0,1-1.012-2.837,4.811,4.811,0,0,1,.8-2.775,5.14,5.14,0,0,1,2.263-1.812,8.549,8.549,0,0,1,3.438-.638,9.055,9.055,0,0,1,2.05.237,7.243,7.243,0,0,1,1.775.638v3.25a7.232,7.232,0,0,0-3.675-.95,3.636,3.636,0,0,0-1.988.45,1.46,1.46,0,0,0-.687,1.3,1.414,1.414,0,0,0,.688,1.2,11.306,11.306,0,0,0,2.563,1.1q4.25,1.4,4.25,4.975a4.811,4.811,0,0,1-1.712,3.888A6.945,6.945,0,0,1,164.258,49.325Zm11.875,0a4.512,4.512,0,0,1-3.1-1.038,3.532,3.532,0,0,1-1.175-2.787,4.018,4.018,0,0,1,1.725-3.463,8.265,8.265,0,0,1,4.875-1.237q.275,0,.55.013t.55.037q-.25-2.2-2.825-2.2a6.227,6.227,0,0,0-3.7,1.175V36.85a7.215,7.215,0,0,1,4.325-1.225,5.878,5.878,0,0,1,4.3,1.475,5.661,5.661,0,0,1,1.5,4.225V49h-3.1l-.2-1.375a3.834,3.834,0,0,1-1.562,1.25A5.153,5.153,0,0,1,176.133,49.325Zm3.45-6.125q-.375-.025-.95-.025a4.733,4.733,0,0,0-2.363.487,1.527,1.527,0,0,0-.838,1.388,1.565,1.565,0,0,0,.5,1.225,1.906,1.906,0,0,0,1.325.45,2.2,2.2,0,0,0,1.65-.7,2.39,2.39,0,0,0,.675-1.725Zm12.275,6.125a6.7,6.7,0,0,1-5-1.825,6.88,6.88,0,0,1-1.8-5.05,7.794,7.794,0,0,1,.775-3.575,5.856,5.856,0,0,1,2.175-2.388,6.069,6.069,0,0,1,3.25-.862,5.18,5.18,0,0,1,4.125,1.725,7,7,0,0,1,1.5,4.75v1.625h-8.15q.6,2.65,3.65,2.65a7.473,7.473,0,0,0,1.95-.263,6.229,6.229,0,0,0,1.725-.737V48.3a5.95,5.95,0,0,1-1.837.75A9.817,9.817,0,0,1,191.858,49.325ZM188.683,41.2h4.7a3.28,3.28,0,0,0-.65-2.038,2.042,2.042,0,0,0-1.65-.712Q189.033,38.45,188.683,41.2Zm17.125,8.125a4.178,4.178,0,0,1-3.625-1.75l-.2,1.425h-3.15V31h3.8v6.2a4.119,4.119,0,0,1,3.45-1.575,4.763,4.763,0,0,1,2.788.825,5.388,5.388,0,0,1,1.85,2.35,9.054,9.054,0,0,1,.662,3.625A9.011,9.011,0,0,1,210.7,46.1a5.442,5.442,0,0,1-1.937,2.388A5.174,5.174,0,0,1,205.808,49.325Zm-.775-3.075a2.1,2.1,0,0,0,1.837-.987,4.924,4.924,0,0,0,.663-2.763,5.041,5.041,0,0,0-.663-2.8,2.2,2.2,0,0,0-3.675-.013,4.924,4.924,0,0,0-.662,2.763,5.041,5.041,0,0,0,.662,2.8A2.088,2.088,0,0,0,205.033,46.25Zm10.275,5.85h-3.4a18.785,18.785,0,0,0,0-19.975h3.4a16.321,16.321,0,0,1,2.275,4.65,18.122,18.122,0,0,1,0,10.65A16.254,16.254,0,0,1,215.308,52.1Z" transform="translate(681.559 25293.895)" fill="#0e295b"/>
    <path id="Caminho_1330" data-name="Caminho 1330" d="M10.883,19H7.233q0-4.15.275-8.387t.825-8.488h4.525l3.95,10.25,3.95-10.25h4.45q.55,4.225.825,8.45T26.308,19h-3.7v-.75q0-1.325-.025-2.863T22.446,11.9q-.112-1.95-.413-4.525l-3.7,9.825H15.208l-3.75-9.95q-.325,2.7-.45,5.613T10.883,19Zm24.05.325a6.7,6.7,0,0,1-5-1.825,6.88,6.88,0,0,1-1.8-5.05,7.794,7.794,0,0,1,.775-3.575,5.856,5.856,0,0,1,2.175-2.387,6.069,6.069,0,0,1,3.25-.863A5.18,5.18,0,0,1,38.458,7.35a7,7,0,0,1,1.5,4.75v1.625h-8.15q.6,2.65,3.65,2.65a7.473,7.473,0,0,0,1.95-.263,6.229,6.229,0,0,0,1.725-.737V18.3a5.951,5.951,0,0,1-1.838.75A9.817,9.817,0,0,1,34.933,19.325ZM31.758,11.2h4.7a3.28,3.28,0,0,0-.65-2.038,2.042,2.042,0,0,0-1.65-.712Q32.108,8.45,31.758,11.2Zm14.925,8.125a4.879,4.879,0,0,1-2.812-.825A5.318,5.318,0,0,1,42,16.15a9.054,9.054,0,0,1-.662-3.625,9.066,9.066,0,0,1,.675-3.663,5.525,5.525,0,0,1,1.9-2.388,4.833,4.833,0,0,1,2.825-.85A4.168,4.168,0,0,1,50.083,7.1V1h3.8V19H50.558l-.2-1.575a3.773,3.773,0,0,1-1.512,1.4A4.62,4.62,0,0,1,46.683,19.325Zm1-3.075a2.1,2.1,0,0,0,1.838-.988,4.923,4.923,0,0,0,.663-2.762,5.041,5.041,0,0,0-.663-2.8,2.2,2.2,0,0,0-3.675-.013,4.923,4.923,0,0,0-.663,2.762,5.041,5.041,0,0,0,.663,2.8A2.088,2.088,0,0,0,47.683,16.25ZM56.433,19V5.95h3.8V19Zm1.9-14.575a2.17,2.17,0,0,1-1.562-.613,2.043,2.043,0,0,1-.638-1.538A2.043,2.043,0,0,1,56.771.737a2.315,2.315,0,0,1,3.138,0,2.064,2.064,0,0,1,.625,1.538,2.064,2.064,0,0,1-.625,1.538A2.158,2.158,0,0,1,58.333,4.425Zm9.225,14.9a4.879,4.879,0,0,1-2.812-.825,5.318,5.318,0,0,1-1.875-2.35,9.054,9.054,0,0,1-.662-3.625,9.066,9.066,0,0,1,.675-3.663,5.525,5.525,0,0,1,1.9-2.388,4.833,4.833,0,0,1,2.825-.85A4.168,4.168,0,0,1,70.958,7.1V1h3.8V19H71.433l-.2-1.575a3.773,3.773,0,0,1-1.512,1.4A4.62,4.62,0,0,1,67.558,19.325Zm1-3.075a2.1,2.1,0,0,0,1.838-.988,4.924,4.924,0,0,0,.662-2.762A5.041,5.041,0,0,0,70.4,9.7a2.2,2.2,0,0,0-3.675-.013,4.924,4.924,0,0,0-.662,2.762,5.041,5.041,0,0,0,.662,2.8A2.088,2.088,0,0,0,68.558,16.25Zm12.45,3.075a4.512,4.512,0,0,1-3.1-1.038A3.532,3.532,0,0,1,76.733,15.5a4.018,4.018,0,0,1,1.725-3.463A8.265,8.265,0,0,1,83.333,10.8q.275,0,.55.012t.55.037q-.25-2.2-2.825-2.2a6.227,6.227,0,0,0-3.7,1.175V6.85a7.215,7.215,0,0,1,4.325-1.225,5.878,5.878,0,0,1,4.3,1.475,5.661,5.661,0,0,1,1.5,4.225V19h-3.1l-.2-1.375a3.834,3.834,0,0,1-1.562,1.25A5.153,5.153,0,0,1,81.008,19.325Zm3.45-6.125q-.375-.025-.95-.025a4.733,4.733,0,0,0-2.362.488,1.527,1.527,0,0,0-.838,1.387,1.565,1.565,0,0,0,.5,1.225,1.906,1.906,0,0,0,1.325.45,2.2,2.2,0,0,0,1.65-.7,2.389,2.389,0,0,0,.675-1.725Zm15.075,6.125a4.879,4.879,0,0,1-2.812-.825,5.318,5.318,0,0,1-1.875-2.35,9.054,9.054,0,0,1-.663-3.625,9.066,9.066,0,0,1,.675-3.663,5.525,5.525,0,0,1,1.9-2.388,4.833,4.833,0,0,1,2.825-.85,4.168,4.168,0,0,1,3.35,1.475V1h3.8V19h-3.325l-.2-1.575a3.773,3.773,0,0,1-1.512,1.4A4.62,4.62,0,0,1,99.533,19.325Zm1-3.075a2.1,2.1,0,0,0,1.837-.988,4.923,4.923,0,0,0,.663-2.762,5.041,5.041,0,0,0-.663-2.8A2.2,2.2,0,0,0,98.7,9.687a4.924,4.924,0,0,0-.662,2.762,5.041,5.041,0,0,0,.662,2.8A2.088,2.088,0,0,0,100.533,16.25Zm14.975,3.075a6.7,6.7,0,0,1-5-1.825,6.88,6.88,0,0,1-1.8-5.05,7.794,7.794,0,0,1,.775-3.575,5.856,5.856,0,0,1,2.175-2.387,6.069,6.069,0,0,1,3.25-.863,5.18,5.18,0,0,1,4.125,1.725,7,7,0,0,1,1.5,4.75v1.625h-8.15q.6,2.65,3.65,2.65a7.472,7.472,0,0,0,1.95-.263,6.229,6.229,0,0,0,1.725-.737V18.3a5.951,5.951,0,0,1-1.838.75A9.817,9.817,0,0,1,115.508,19.325ZM112.333,11.2h4.7a3.28,3.28,0,0,0-.65-2.038,2.042,2.042,0,0,0-1.65-.712Q112.683,8.45,112.333,11.2Zm14.4,7.8V5.95h3.325l.25,1.875a4.1,4.1,0,0,1,1.262-1.55,2.809,2.809,0,0,1,1.688-.575,2.5,2.5,0,0,1,1,.175V9.4a2.38,2.38,0,0,0-1.075-.225,2.411,2.411,0,0,0-1.937.837,3.458,3.458,0,0,0-.712,2.312V19Zm15.225.325a6.7,6.7,0,0,1-5-1.825,6.88,6.88,0,0,1-1.8-5.05,7.794,7.794,0,0,1,.775-3.575,5.856,5.856,0,0,1,2.175-2.387,6.069,6.069,0,0,1,3.25-.863,5.18,5.18,0,0,1,4.125,1.725,7,7,0,0,1,1.5,4.75v1.625h-8.15q.6,2.65,3.65,2.65a7.473,7.473,0,0,0,1.95-.263,6.229,6.229,0,0,0,1.725-.737V18.3a5.951,5.951,0,0,1-1.837.75A9.817,9.817,0,0,1,141.958,19.325ZM138.783,11.2h4.7a3.28,3.28,0,0,0-.65-2.038,2.042,2.042,0,0,0-1.65-.712Q139.133,8.45,138.783,11.2Zm14.925,8.125A4.879,4.879,0,0,1,150.9,18.5a5.318,5.318,0,0,1-1.875-2.35,9.054,9.054,0,0,1-.663-3.625,9.066,9.066,0,0,1,.675-3.663,5.525,5.525,0,0,1,1.9-2.388,4.833,4.833,0,0,1,2.825-.85,4.167,4.167,0,0,1,3.35,1.475V1h3.8V19h-3.325l-.2-1.575a3.773,3.773,0,0,1-1.513,1.4A4.62,4.62,0,0,1,153.708,19.325Zm1-3.075a2.1,2.1,0,0,0,1.837-.988,4.924,4.924,0,0,0,.663-2.762,5.041,5.041,0,0,0-.663-2.8,2.2,2.2,0,0,0-3.675-.013,4.924,4.924,0,0,0-.662,2.762,5.041,5.041,0,0,0,.662,2.8A2.088,2.088,0,0,0,154.708,16.25Zm13.075,3.075a4,4,0,0,1-3.2-1.4,5.45,5.45,0,0,1-1.2-3.675V5.95h3.8v7.675a3.132,3.132,0,0,0,.512,1.925,1.727,1.727,0,0,0,1.463.675,1.853,1.853,0,0,0,1.512-.687,2.9,2.9,0,0,0,.563-1.888V5.95h3.8V19h-3.325l-.2-1.425A4.4,4.4,0,0,1,167.783,19.325Zm15.825,0a7.059,7.059,0,0,1-3.5-.825,5.686,5.686,0,0,1-2.288-2.362,7.682,7.682,0,0,1-.812-3.638,7.368,7.368,0,0,1,.85-3.6,6.093,6.093,0,0,1,2.363-2.413,6.967,6.967,0,0,1,3.512-.863,6.81,6.81,0,0,1,1.75.225,4.265,4.265,0,0,1,1.35.575V9.5a4.273,4.273,0,0,0-2.625-.8,3.141,3.141,0,0,0-2.462.988,3.988,3.988,0,0,0-.887,2.762,4.022,4.022,0,0,0,.912,2.775,3.131,3.131,0,0,0,2.463,1.025,4.3,4.3,0,0,0,2.75-.85v3.05a4.34,4.34,0,0,1-1.45.637A7.52,7.52,0,0,1,183.608,19.325Zm-1.6-.575h2.1l-.475,1.65a2.968,2.968,0,0,1,1.875.775,2.2,2.2,0,0,1,.7,1.65,2.406,2.406,0,0,1-1.012,2.063,4.8,4.8,0,0,1-2.863.737,6.552,6.552,0,0,1-1.625-.225V23.5a4.156,4.156,0,0,0,.7.138,5.756,5.756,0,0,0,.6.037q1.45,0,1.45-.925,0-.85-1.525-.85h-.775Zm11,.575a4.512,4.512,0,0,1-3.1-1.038,3.532,3.532,0,0,1-1.175-2.788,4.018,4.018,0,0,1,1.725-3.463,8.265,8.265,0,0,1,4.875-1.237q.275,0,.55.012t.55.037q-.25-2.2-2.825-2.2a6.227,6.227,0,0,0-3.7,1.175V6.85a7.215,7.215,0,0,1,4.325-1.225,5.878,5.878,0,0,1,4.3,1.475,5.661,5.661,0,0,1,1.5,4.225V19h-3.1l-.2-1.375a3.834,3.834,0,0,1-1.562,1.25A5.153,5.153,0,0,1,193.008,19.325Zm3.45-6.125q-.375-.025-.95-.025a4.733,4.733,0,0,0-2.363.488,1.527,1.527,0,0,0-.838,1.387,1.565,1.565,0,0,0,.5,1.225,1.906,1.906,0,0,0,1.325.45,2.2,2.2,0,0,0,1.65-.7,2.39,2.39,0,0,0,.675-1.725Zm.175-8.825a2.687,2.687,0,0,1-1.363-.337q-.588-.337-1.062-.675a1.548,1.548,0,0,0-.875-.338q-.7,0-.7,1.1v.2h-2.325v-.2a4.316,4.316,0,0,1,.7-2.663A2.4,2.4,0,0,1,193.033.55a2.756,2.756,0,0,1,1.375.337,10.731,10.731,0,0,1,1.063.675,1.494,1.494,0,0,0,.863.338q.7,0,.7-1.1V.6h2.325V.8a4.316,4.316,0,0,1-.7,2.663A2.4,2.4,0,0,1,196.633,4.375Zm11.65,14.95a6.491,6.491,0,0,1-3.35-.838,5.7,5.7,0,0,1-2.212-2.375,7.826,7.826,0,0,1-.788-3.612,7.9,7.9,0,0,1,.788-3.625,5.74,5.74,0,0,1,2.225-2.4,7.047,7.047,0,0,1,6.688-.012,5.7,5.7,0,0,1,2.213,2.375,7.826,7.826,0,0,1,.787,3.612,7.9,7.9,0,0,1-.787,3.625,5.766,5.766,0,0,1-2.213,2.4A6.416,6.416,0,0,1,208.283,19.325Zm0-3.075a2.1,2.1,0,0,0,1.837-.988,4.924,4.924,0,0,0,.663-2.762,5.041,5.041,0,0,0-.663-2.8,2.2,2.2,0,0,0-3.675-.013,4.924,4.924,0,0,0-.662,2.762,5.041,5.041,0,0,0,.662,2.8A2.088,2.088,0,0,0,208.283,16.25ZM26.133,49.325a4.879,4.879,0,0,1-2.812-.825,5.318,5.318,0,0,1-1.875-2.35,9.054,9.054,0,0,1-.662-3.625,9.066,9.066,0,0,1,.675-3.663,5.525,5.525,0,0,1,1.9-2.388,4.833,4.833,0,0,1,2.825-.85,4.167,4.167,0,0,1,3.35,1.475V31h3.8V49H30.008l-.2-1.575a3.773,3.773,0,0,1-1.513,1.4A4.62,4.62,0,0,1,26.133,49.325Zm1-3.075a2.1,2.1,0,0,0,1.838-.987,4.923,4.923,0,0,0,.663-2.763,5.041,5.041,0,0,0-.663-2.8,2.2,2.2,0,0,0-3.675-.013,4.923,4.923,0,0,0-.663,2.763,5.041,5.041,0,0,0,.663,2.8A2.088,2.088,0,0,0,27.133,46.25Zm12.45,3.075a4.512,4.512,0,0,1-3.1-1.038A3.532,3.532,0,0,1,35.308,45.5a4.018,4.018,0,0,1,1.725-3.463A8.265,8.265,0,0,1,41.908,40.8q.275,0,.55.013t.55.037q-.25-2.2-2.825-2.2a6.227,6.227,0,0,0-3.7,1.175V36.85a7.215,7.215,0,0,1,4.325-1.225,5.878,5.878,0,0,1,4.3,1.475,5.661,5.661,0,0,1,1.5,4.225V49h-3.1l-.2-1.375a3.834,3.834,0,0,1-1.562,1.25A5.153,5.153,0,0,1,39.583,49.325Zm3.45-6.125q-.375-.025-.95-.025a4.733,4.733,0,0,0-2.362.487,1.527,1.527,0,0,0-.837,1.388,1.565,1.565,0,0,0,.5,1.225,1.906,1.906,0,0,0,1.325.45,2.2,2.2,0,0,0,1.65-.7,2.39,2.39,0,0,0,.675-1.725Zm15.075,6.125A4.879,4.879,0,0,1,55.3,48.5a5.318,5.318,0,0,1-1.875-2.35,9.054,9.054,0,0,1-.662-3.625,9.066,9.066,0,0,1,.675-3.663,5.525,5.525,0,0,1,1.9-2.388,4.833,4.833,0,0,1,2.825-.85,4.167,4.167,0,0,1,3.35,1.475V31h3.8V49H61.983l-.2-1.575a3.773,3.773,0,0,1-1.512,1.4A4.62,4.62,0,0,1,58.108,49.325Zm1-3.075a2.1,2.1,0,0,0,1.838-.987,4.923,4.923,0,0,0,.663-2.763,5.041,5.041,0,0,0-.663-2.8,2.2,2.2,0,0,0-3.675-.013,4.923,4.923,0,0,0-.663,2.763,5.041,5.041,0,0,0,.663,2.8A2.088,2.088,0,0,0,59.108,46.25Zm14.975,3.075a6.7,6.7,0,0,1-5-1.825,6.88,6.88,0,0,1-1.8-5.05,7.794,7.794,0,0,1,.775-3.575,5.856,5.856,0,0,1,2.175-2.388,6.069,6.069,0,0,1,3.25-.862,5.18,5.18,0,0,1,4.125,1.725,7,7,0,0,1,1.5,4.75v1.625h-8.15q.6,2.65,3.65,2.65a7.473,7.473,0,0,0,1.95-.263,6.229,6.229,0,0,0,1.725-.737V48.3a5.951,5.951,0,0,1-1.838.75A9.817,9.817,0,0,1,74.083,49.325ZM70.908,41.2h4.7a3.28,3.28,0,0,0-.65-2.038,2.042,2.042,0,0,0-1.65-.712Q71.258,38.45,70.908,41.2Zm14.375,8.125a10.686,10.686,0,0,1-2.325-.25,7.258,7.258,0,0,1-1.975-.725V45.375a7.027,7.027,0,0,0,1.862.8,7.742,7.742,0,0,0,2.038.275q2,0,2-1.225a.957.957,0,0,0-.513-.825,8.247,8.247,0,0,0-1.987-.725q-3.45-.975-3.45-3.95a3.531,3.531,0,0,1,1.513-2.975,6.61,6.61,0,0,1,4.037-1.125,8.558,8.558,0,0,1,1.838.2,5.6,5.6,0,0,1,1.537.55V39.3a6.946,6.946,0,0,0-3.275-.8q-1.925,0-1.925,1.125a.892.892,0,0,0,.475.775,8.314,8.314,0,0,0,1.9.7,5.637,5.637,0,0,1,2.8,1.513,3.72,3.72,0,0,1,.875,2.563,3.63,3.63,0,0,1-1.45,3.025A6.331,6.331,0,0,1,85.283,49.325ZM92.608,49V35.95h3.8V49Zm1.9-14.575a2.17,2.17,0,0,1-1.562-.612,2.173,2.173,0,0,1,0-3.075,2.315,2.315,0,0,1,3.137,0,2.2,2.2,0,0,1,0,3.075A2.158,2.158,0,0,1,94.508,34.425Zm9.575,19.525a8.935,8.935,0,0,1-2.287-.3,8.314,8.314,0,0,1-2.013-.8V49.775a6.5,6.5,0,0,0,1.825.813,7.473,7.473,0,0,0,2.025.287q3.525,0,3.525-3.5V47.25a4.265,4.265,0,0,1-3.425,1.5,5.031,5.031,0,0,1-2.825-.787,5.176,5.176,0,0,1-1.862-2.225,7.964,7.964,0,0,1-.663-3.362,8.544,8.544,0,0,1,.688-3.562,5.476,5.476,0,0,1,1.937-2.35,5.174,5.174,0,0,1,2.95-.838,4.178,4.178,0,0,1,3.625,1.75l.2-1.425h3.175V46.975a7.042,7.042,0,0,1-1.787,5.163A6.827,6.827,0,0,1,104.083,53.95Zm.7-8.1a2.064,2.064,0,0,0,1.8-.95,4.5,4.5,0,0,0,.65-2.575,4.654,4.654,0,0,0-.663-2.65,2.08,2.08,0,0,0-1.812-.975,2.149,2.149,0,0,0-1.85.95,4.516,4.516,0,0,0-.675,2.65,4.31,4.31,0,0,0,.7,2.588A2.181,2.181,0,0,0,104.783,45.85Zm13.05,3.475a4,4,0,0,1-3.2-1.4,5.45,5.45,0,0,1-1.2-3.675v-8.3h3.8v7.675a3.132,3.132,0,0,0,.512,1.925,1.727,1.727,0,0,0,1.463.675,1.853,1.853,0,0,0,1.513-.687,2.9,2.9,0,0,0,.563-1.887v-7.7h3.8V49h-3.325l-.2-1.425A4.4,4.4,0,0,1,117.833,49.325Zm13.5,0a4.512,4.512,0,0,1-3.1-1.038,3.532,3.532,0,0,1-1.175-2.787,4.018,4.018,0,0,1,1.725-3.463,8.265,8.265,0,0,1,4.875-1.237q.275,0,.55.013t.55.037q-.25-2.2-2.825-2.2a6.227,6.227,0,0,0-3.7,1.175V36.85a7.215,7.215,0,0,1,4.325-1.225,5.878,5.878,0,0,1,4.3,1.475,5.661,5.661,0,0,1,1.5,4.225V49h-3.1l-.2-1.375a3.834,3.834,0,0,1-1.562,1.25A5.153,5.153,0,0,1,131.333,49.325Zm3.45-6.125q-.375-.025-.95-.025a4.733,4.733,0,0,0-2.363.487,1.527,1.527,0,0,0-.838,1.388,1.565,1.565,0,0,0,.5,1.225,1.906,1.906,0,0,0,1.325.45,2.2,2.2,0,0,0,1.65-.7,2.39,2.39,0,0,0,.675-1.725Zm6.05,5.8V31h3.8V49Zm11.125.325a4.879,4.879,0,0,1-2.812-.825,5.318,5.318,0,0,1-1.875-2.35,9.054,9.054,0,0,1-.663-3.625,9.066,9.066,0,0,1,.675-3.663,5.525,5.525,0,0,1,1.9-2.388,4.833,4.833,0,0,1,2.825-.85,4.167,4.167,0,0,1,3.35,1.475V31h3.8V49h-3.325l-.2-1.575a3.773,3.773,0,0,1-1.513,1.4A4.62,4.62,0,0,1,151.958,49.325Zm1-3.075a2.1,2.1,0,0,0,1.837-.987,4.924,4.924,0,0,0,.663-2.763,5.041,5.041,0,0,0-.663-2.8,2.2,2.2,0,0,0-3.675-.013,4.924,4.924,0,0,0-.662,2.763,5.041,5.041,0,0,0,.662,2.8A2.088,2.088,0,0,0,152.958,46.25Zm12.45,3.075a4.512,4.512,0,0,1-3.1-1.038,3.532,3.532,0,0,1-1.175-2.787,4.018,4.018,0,0,1,1.725-3.463,8.265,8.265,0,0,1,4.875-1.237q.275,0,.55.013t.55.037q-.25-2.2-2.825-2.2a6.227,6.227,0,0,0-3.7,1.175V36.85a7.215,7.215,0,0,1,4.325-1.225,5.878,5.878,0,0,1,4.3,1.475,5.661,5.661,0,0,1,1.5,4.225V49h-3.1l-.2-1.375a3.834,3.834,0,0,1-1.562,1.25A5.153,5.153,0,0,1,165.408,49.325Zm3.45-6.125q-.375-.025-.95-.025a4.733,4.733,0,0,0-2.363.487,1.527,1.527,0,0,0-.838,1.388,1.565,1.565,0,0,0,.5,1.225,1.906,1.906,0,0,0,1.325.45,2.2,2.2,0,0,0,1.65-.7,2.39,2.39,0,0,0,.675-1.725Zm10.825,6.125a4.879,4.879,0,0,1-2.812-.825A5.318,5.318,0,0,1,175,46.15a9.054,9.054,0,0,1-.663-3.625,9.066,9.066,0,0,1,.675-3.663,5.525,5.525,0,0,1,1.9-2.388,4.833,4.833,0,0,1,2.825-.85,4.167,4.167,0,0,1,3.35,1.475V31h3.8V49h-3.325l-.2-1.575a3.773,3.773,0,0,1-1.513,1.4A4.62,4.62,0,0,1,179.683,49.325Zm1-3.075a2.1,2.1,0,0,0,1.837-.987,4.924,4.924,0,0,0,.663-2.763,5.041,5.041,0,0,0-.663-2.8,2.2,2.2,0,0,0-3.675-.013,4.924,4.924,0,0,0-.662,2.763,5.041,5.041,0,0,0,.662,2.8A2.088,2.088,0,0,0,180.683,46.25Zm14.975,3.075a6.7,6.7,0,0,1-5-1.825,6.88,6.88,0,0,1-1.8-5.05,7.794,7.794,0,0,1,.775-3.575,5.856,5.856,0,0,1,2.175-2.388,6.069,6.069,0,0,1,3.25-.862,5.18,5.18,0,0,1,4.125,1.725,7,7,0,0,1,1.5,4.75v1.625h-8.15q.6,2.65,3.65,2.65a7.473,7.473,0,0,0,1.95-.263,6.229,6.229,0,0,0,1.725-.737V48.3a5.95,5.95,0,0,1-1.837.75A9.817,9.817,0,0,1,195.658,49.325ZM192.483,41.2h4.7a3.28,3.28,0,0,0-.65-2.038,2.042,2.042,0,0,0-1.65-.712Q192.833,38.45,192.483,41.2Z" transform="translate(960.559 25293.895)" fill="#0e295b"/>
    <g id="Retângulo_1079" data-name="Retângulo 1079" transform="translate(389 25042.648)" fill="#ed770c" stroke="#fadbbf" stroke-width="3">
      <rect width="542" height="116" rx="40" stroke="none"/>
      <rect x="1.5" y="1.5" width="539" height="113" rx="38.5" fill="none"/>
    </g>
    <path id="Caminho_1326" data-name="Caminho 1326" d="M37.071,19h-3.65q0-4.15.275-8.387t.825-8.488h4.525L43,12.375l3.95-10.25H51.4q.55,4.225.825,8.45T52.5,19H48.8v-.75q0-1.325-.025-2.863T48.634,11.9q-.113-1.95-.413-4.525l-3.7,9.825H41.4l-3.75-9.95q-.325,2.7-.45,5.613T37.071,19Zm24.05.325a6.7,6.7,0,0,1-5-1.825,6.88,6.88,0,0,1-1.8-5.05A7.794,7.794,0,0,1,55.1,8.875a5.856,5.856,0,0,1,2.175-2.387,6.069,6.069,0,0,1,3.25-.863A5.18,5.18,0,0,1,64.646,7.35a7,7,0,0,1,1.5,4.75v1.625H58q.6,2.65,3.65,2.65a7.473,7.473,0,0,0,1.95-.263,6.229,6.229,0,0,0,1.725-.737V18.3a5.951,5.951,0,0,1-1.838.75A9.817,9.817,0,0,1,61.121,19.325ZM57.946,11.2h4.7A3.28,3.28,0,0,0,62,9.162a2.042,2.042,0,0,0-1.65-.712Q58.3,8.45,57.946,11.2Zm14.925,8.125a4.879,4.879,0,0,1-2.812-.825,5.318,5.318,0,0,1-1.875-2.35,9.054,9.054,0,0,1-.663-3.625A9.066,9.066,0,0,1,68.2,8.862a5.525,5.525,0,0,1,1.9-2.388,4.833,4.833,0,0,1,2.825-.85A4.168,4.168,0,0,1,76.271,7.1V1h3.8V19H76.746l-.2-1.575a3.773,3.773,0,0,1-1.512,1.4A4.62,4.62,0,0,1,72.871,19.325Zm1-3.075a2.1,2.1,0,0,0,1.838-.988,4.924,4.924,0,0,0,.662-2.762,5.041,5.041,0,0,0-.662-2.8,2.2,2.2,0,0,0-3.675-.013,4.924,4.924,0,0,0-.662,2.762,5.041,5.041,0,0,0,.662,2.8A2.088,2.088,0,0,0,73.871,16.25ZM82.621,19V5.95h3.8V19Zm1.9-14.575a2.17,2.17,0,0,1-1.562-.613,2.043,2.043,0,0,1-.638-1.538A2.043,2.043,0,0,1,82.959.737a2.315,2.315,0,0,1,3.137,0,2.064,2.064,0,0,1,.625,1.538A2.064,2.064,0,0,1,86.1,3.813,2.158,2.158,0,0,1,84.521,4.425Zm9.225,14.9a4.879,4.879,0,0,1-2.812-.825,5.318,5.318,0,0,1-1.875-2.35,9.054,9.054,0,0,1-.663-3.625,9.066,9.066,0,0,1,.675-3.663,5.525,5.525,0,0,1,1.9-2.388,4.833,4.833,0,0,1,2.825-.85A4.168,4.168,0,0,1,97.146,7.1V1h3.8V19H97.621l-.2-1.575a3.773,3.773,0,0,1-1.512,1.4A4.62,4.62,0,0,1,93.746,19.325Zm1-3.075a2.1,2.1,0,0,0,1.838-.988,4.924,4.924,0,0,0,.662-2.762,5.041,5.041,0,0,0-.662-2.8,2.2,2.2,0,0,0-3.675-.013,4.924,4.924,0,0,0-.662,2.762,5.041,5.041,0,0,0,.662,2.8A2.088,2.088,0,0,0,94.746,16.25Zm12.45,3.075a4.512,4.512,0,0,1-3.1-1.038,3.532,3.532,0,0,1-1.175-2.788,4.018,4.018,0,0,1,1.725-3.463,8.265,8.265,0,0,1,4.875-1.237q.275,0,.55.012t.55.037q-.25-2.2-2.825-2.2a6.227,6.227,0,0,0-3.7,1.175V6.85a7.215,7.215,0,0,1,4.325-1.225,5.878,5.878,0,0,1,4.3,1.475,5.661,5.661,0,0,1,1.5,4.225V19h-3.1l-.2-1.375a3.834,3.834,0,0,1-1.562,1.25A5.153,5.153,0,0,1,107.2,19.325Zm3.45-6.125q-.375-.025-.95-.025a4.733,4.733,0,0,0-2.362.488,1.527,1.527,0,0,0-.838,1.387,1.565,1.565,0,0,0,.5,1.225,1.906,1.906,0,0,0,1.325.45,2.2,2.2,0,0,0,1.65-.7,2.389,2.389,0,0,0,.675-1.725Zm10.1,6.125a10.687,10.687,0,0,1-2.325-.25,7.258,7.258,0,0,1-1.975-.725V15.375a7.027,7.027,0,0,0,1.862.8,7.742,7.742,0,0,0,2.038.275q2,0,2-1.225a.957.957,0,0,0-.513-.825,8.247,8.247,0,0,0-1.987-.725q-3.45-.975-3.45-3.95a3.531,3.531,0,0,1,1.513-2.975,6.61,6.61,0,0,1,4.037-1.125,8.559,8.559,0,0,1,1.838.2,5.6,5.6,0,0,1,1.537.55V9.3a6.946,6.946,0,0,0-3.275-.8q-1.925,0-1.925,1.125a.892.892,0,0,0,.475.775,8.314,8.314,0,0,0,1.9.7,5.637,5.637,0,0,1,2.8,1.512,3.72,3.72,0,0,1,.875,2.563,3.63,3.63,0,0,1-1.45,3.025A6.331,6.331,0,0,1,120.746,19.325ZM132.321,19V5.95h3.325l.2,1.5a4.427,4.427,0,0,1,3.775-1.825,4.134,4.134,0,0,1,3.275,1.4,5.416,5.416,0,0,1,1.225,3.7V19h-3.8V11.325q0-2.55-2.05-2.55a1.944,1.944,0,0,0-1.575.688,2.812,2.812,0,0,0-.575,1.863V19Zm20.5.325a6.7,6.7,0,0,1-5-1.825,6.88,6.88,0,0,1-1.8-5.05,7.794,7.794,0,0,1,.775-3.575,5.856,5.856,0,0,1,2.175-2.387,6.069,6.069,0,0,1,3.25-.863,5.18,5.18,0,0,1,4.125,1.725,7,7,0,0,1,1.5,4.75v1.625H149.7q.6,2.65,3.65,2.65a7.473,7.473,0,0,0,1.95-.263,6.229,6.229,0,0,0,1.725-.737V18.3a5.951,5.951,0,0,1-1.837.75A9.817,9.817,0,0,1,152.821,19.325ZM149.646,11.2h4.7a3.28,3.28,0,0,0-.65-2.038,2.042,2.042,0,0,0-1.65-.712Q150,8.45,149.646,11.2Zm16.175,8.125a7.059,7.059,0,0,1-3.5-.825,5.686,5.686,0,0,1-2.288-2.362,7.682,7.682,0,0,1-.812-3.638,7.368,7.368,0,0,1,.85-3.6,6.093,6.093,0,0,1,2.363-2.413,6.967,6.967,0,0,1,3.512-.863,6.81,6.81,0,0,1,1.75.225,4.265,4.265,0,0,1,1.35.575V9.5a4.273,4.273,0,0,0-2.625-.8,3.141,3.141,0,0,0-2.462.988,3.988,3.988,0,0,0-.887,2.762,4.022,4.022,0,0,0,.912,2.775,3.131,3.131,0,0,0,2.463,1.025,4.3,4.3,0,0,0,2.75-.85v3.05a4.34,4.34,0,0,1-1.45.637A7.52,7.52,0,0,1,165.821,19.325Zm11.625,0a6.7,6.7,0,0,1-5-1.825,6.88,6.88,0,0,1-1.8-5.05,7.794,7.794,0,0,1,.775-3.575A5.856,5.856,0,0,1,173.6,6.487a6.069,6.069,0,0,1,3.25-.863,5.18,5.18,0,0,1,4.125,1.725,7,7,0,0,1,1.5,4.75v1.625h-8.15q.6,2.65,3.65,2.65a7.473,7.473,0,0,0,1.95-.263,6.229,6.229,0,0,0,1.725-.737V18.3a5.951,5.951,0,0,1-1.837.75A9.817,9.817,0,0,1,177.446,19.325ZM174.271,11.2h4.7a3.28,3.28,0,0,0-.65-2.038,2.042,2.042,0,0,0-1.65-.712Q174.621,8.45,174.271,11.2Zm14.375,8.125a10.687,10.687,0,0,1-2.325-.25,7.258,7.258,0,0,1-1.975-.725V15.375a7.027,7.027,0,0,0,1.863.8,7.742,7.742,0,0,0,2.038.275q2,0,2-1.225a.957.957,0,0,0-.512-.825,8.247,8.247,0,0,0-1.988-.725q-3.45-.975-3.45-3.95a3.531,3.531,0,0,1,1.512-2.975,6.61,6.61,0,0,1,4.037-1.125,8.559,8.559,0,0,1,1.838.2,5.6,5.6,0,0,1,1.537.55V9.3a6.946,6.946,0,0,0-3.275-.8q-1.925,0-1.925,1.125a.892.892,0,0,0,.475.775,8.314,8.314,0,0,0,1.9.7,5.637,5.637,0,0,1,2.8,1.512,3.72,3.72,0,0,1,.875,2.563,3.631,3.631,0,0,1-1.45,3.025A6.331,6.331,0,0,1,188.646,19.325Zm11.375,0a10.687,10.687,0,0,1-2.325-.25,7.258,7.258,0,0,1-1.975-.725V15.375a7.027,7.027,0,0,0,1.863.8,7.742,7.742,0,0,0,2.038.275q2,0,2-1.225a.957.957,0,0,0-.512-.825,8.247,8.247,0,0,0-1.988-.725q-3.45-.975-3.45-3.95a3.531,3.531,0,0,1,1.512-2.975,6.61,6.61,0,0,1,4.037-1.125,8.559,8.559,0,0,1,1.838.2,5.6,5.6,0,0,1,1.537.55V9.3a6.946,6.946,0,0,0-3.275-.8q-1.925,0-1.925,1.125a.892.892,0,0,0,.475.775,8.314,8.314,0,0,0,1.9.7,5.637,5.637,0,0,1,2.8,1.512,3.72,3.72,0,0,1,.875,2.563A3.631,3.631,0,0,1,204,18.2,6.331,6.331,0,0,1,200.021,19.325Zm11.275,0a4.512,4.512,0,0,1-3.1-1.038,3.532,3.532,0,0,1-1.175-2.788,4.018,4.018,0,0,1,1.725-3.463,8.265,8.265,0,0,1,4.875-1.237q.275,0,.55.012t.55.037q-.25-2.2-2.825-2.2a6.227,6.227,0,0,0-3.7,1.175V6.85a7.215,7.215,0,0,1,4.325-1.225,5.878,5.878,0,0,1,4.3,1.475,5.661,5.661,0,0,1,1.5,4.225V19h-3.1l-.2-1.375a3.834,3.834,0,0,1-1.562,1.25A5.153,5.153,0,0,1,211.3,19.325Zm3.45-6.125q-.375-.025-.95-.025a4.733,4.733,0,0,0-2.363.488,1.527,1.527,0,0,0-.838,1.387,1.565,1.565,0,0,0,.5,1.225,1.906,1.906,0,0,0,1.325.45,2.2,2.2,0,0,0,1.65-.7,2.39,2.39,0,0,0,.675-1.725ZM217.971.375l-3.5,3.975h-3.3L213.9.375ZM220.8,19V5.95h3.325l.25,1.875a4.1,4.1,0,0,1,1.262-1.55,2.809,2.809,0,0,1,1.688-.575,2.5,2.5,0,0,1,1,.175V9.4a2.38,2.38,0,0,0-1.075-.225,2.411,2.411,0,0,0-1.937.837,3.457,3.457,0,0,0-.713,2.312V19Zm9.5,0V5.95h3.8V19Zm1.9-14.575a2.17,2.17,0,0,1-1.562-.613A2.043,2.043,0,0,1,230,2.275a2.043,2.043,0,0,1,.637-1.538,2.315,2.315,0,0,1,3.137,0,2.064,2.064,0,0,1,.625,1.538,2.064,2.064,0,0,1-.625,1.538A2.158,2.158,0,0,1,232.2,4.425Zm8.15,14.9a4.512,4.512,0,0,1-3.1-1.038,3.532,3.532,0,0,1-1.175-2.788,4.018,4.018,0,0,1,1.725-3.463,8.265,8.265,0,0,1,4.875-1.237q.275,0,.55.012t.55.037q-.25-2.2-2.825-2.2a6.227,6.227,0,0,0-3.7,1.175V6.85a7.215,7.215,0,0,1,4.325-1.225,5.878,5.878,0,0,1,4.3,1.475,5.661,5.661,0,0,1,1.5,4.225V19h-3.1l-.2-1.375a3.834,3.834,0,0,1-1.562,1.25A5.153,5.153,0,0,1,240.346,19.325ZM243.8,13.2q-.375-.025-.95-.025a4.733,4.733,0,0,0-2.363.488,1.527,1.527,0,0,0-.838,1.387,1.565,1.565,0,0,0,.5,1.225,1.906,1.906,0,0,0,1.325.45,2.2,2.2,0,0,0,1.65-.7A2.39,2.39,0,0,0,243.8,14.3Zm10.1,6.125a10.687,10.687,0,0,1-2.325-.25,7.258,7.258,0,0,1-1.975-.725V15.375a7.027,7.027,0,0,0,1.863.8,7.742,7.742,0,0,0,2.038.275q2,0,2-1.225a.957.957,0,0,0-.512-.825A8.247,8.247,0,0,0,253,13.675q-3.45-.975-3.45-3.95a3.531,3.531,0,0,1,1.512-2.975A6.61,6.61,0,0,1,255.1,5.625a8.559,8.559,0,0,1,1.838.2,5.6,5.6,0,0,1,1.538.55V9.3a6.946,6.946,0,0,0-3.275-.8q-1.925,0-1.925,1.125a.892.892,0,0,0,.475.775,8.314,8.314,0,0,0,1.9.7,5.637,5.637,0,0,1,2.8,1.512,3.72,3.72,0,0,1,.875,2.563,3.63,3.63,0,0,1-1.45,3.025A6.331,6.331,0,0,1,253.9,19.325Zm11.575,4.3V5.95H268.8l.2,1.6a3.892,3.892,0,0,1,1.538-1.425,4.675,4.675,0,0,1,2.188-.5,4.763,4.763,0,0,1,2.788.825,5.388,5.388,0,0,1,1.85,2.35,9.054,9.054,0,0,1,.663,3.625,9.087,9.087,0,0,1-.675,3.65,5.551,5.551,0,0,1-1.887,2.4,4.818,4.818,0,0,1-2.838.85,4.137,4.137,0,0,1-3.35-1.5v5.8Zm6.2-7.375a2.1,2.1,0,0,0,1.837-.988,4.923,4.923,0,0,0,.663-2.762,5.041,5.041,0,0,0-.663-2.8,2.2,2.2,0,0,0-3.675-.013,4.923,4.923,0,0,0-.663,2.762,5.041,5.041,0,0,0,.663,2.8A2.088,2.088,0,0,0,271.671,16.25ZM283.7,19.325a4.512,4.512,0,0,1-3.1-1.038,3.532,3.532,0,0,1-1.175-2.788,4.018,4.018,0,0,1,1.725-3.463,8.265,8.265,0,0,1,4.875-1.237q.275,0,.55.012t.55.037q-.25-2.2-2.825-2.2a6.227,6.227,0,0,0-3.7,1.175V6.85a7.215,7.215,0,0,1,4.325-1.225,5.878,5.878,0,0,1,4.3,1.475,5.661,5.661,0,0,1,1.5,4.225V19h-3.1l-.2-1.375a3.834,3.834,0,0,1-1.562,1.25A5.153,5.153,0,0,1,283.7,19.325Zm3.45-6.125q-.375-.025-.95-.025a4.733,4.733,0,0,0-2.363.488A1.527,1.527,0,0,0,283,15.05a1.565,1.565,0,0,0,.5,1.225,1.906,1.906,0,0,0,1.325.45,2.2,2.2,0,0,0,1.65-.7,2.39,2.39,0,0,0,.675-1.725ZM293.2,19V5.95h3.325l.25,1.875a4.1,4.1,0,0,1,1.262-1.55,2.809,2.809,0,0,1,1.688-.575,2.5,2.5,0,0,1,1,.175V9.4a2.38,2.38,0,0,0-1.075-.225,2.411,2.411,0,0,0-1.937.837A3.457,3.457,0,0,0,297,12.325V19Zm12.725.325a4.512,4.512,0,0,1-3.1-1.038,3.532,3.532,0,0,1-1.175-2.788,4.018,4.018,0,0,1,1.725-3.463,8.265,8.265,0,0,1,4.875-1.237q.275,0,.55.012t.55.037q-.25-2.2-2.825-2.2a6.227,6.227,0,0,0-3.7,1.175V6.85a7.215,7.215,0,0,1,4.325-1.225,5.878,5.878,0,0,1,4.3,1.475,5.661,5.661,0,0,1,1.5,4.225V19h-3.1l-.2-1.375a3.834,3.834,0,0,1-1.562,1.25A5.153,5.153,0,0,1,305.921,19.325Zm3.45-6.125q-.375-.025-.95-.025a4.733,4.733,0,0,0-2.363.488,1.527,1.527,0,0,0-.837,1.387,1.565,1.565,0,0,0,.5,1.225,1.906,1.906,0,0,0,1.325.45,2.2,2.2,0,0,0,1.65-.7,2.39,2.39,0,0,0,.675-1.725Zm14,6.125a4.512,4.512,0,0,1-3.1-1.038A3.532,3.532,0,0,1,319.1,15.5a4.018,4.018,0,0,1,1.725-3.463A8.265,8.265,0,0,1,325.7,10.8q.275,0,.55.012t.55.037q-.25-2.2-2.825-2.2a6.227,6.227,0,0,0-3.7,1.175V6.85A7.215,7.215,0,0,1,324.6,5.625,5.878,5.878,0,0,1,328.9,7.1a5.661,5.661,0,0,1,1.5,4.225V19h-3.1l-.2-1.375a3.834,3.834,0,0,1-1.562,1.25A5.153,5.153,0,0,1,323.371,19.325Zm3.45-6.125q-.375-.025-.95-.025a4.733,4.733,0,0,0-2.363.488,1.527,1.527,0,0,0-.837,1.387,1.565,1.565,0,0,0,.5,1.225,1.906,1.906,0,0,0,1.325.45,2.2,2.2,0,0,0,1.65-.7,2.39,2.39,0,0,0,.675-1.725Zm10.1,6.125a10.687,10.687,0,0,1-2.325-.25,7.258,7.258,0,0,1-1.975-.725V15.375a7.027,7.027,0,0,0,1.863.8,7.742,7.742,0,0,0,2.037.275q2,0,2-1.225a.957.957,0,0,0-.512-.825,8.247,8.247,0,0,0-1.988-.725q-3.45-.975-3.45-3.95a3.531,3.531,0,0,1,1.512-2.975,6.61,6.61,0,0,1,4.038-1.125,8.558,8.558,0,0,1,1.837.2,5.6,5.6,0,0,1,1.538.55V9.3a6.946,6.946,0,0,0-3.275-.8q-1.925,0-1.925,1.125a.892.892,0,0,0,.475.775,8.315,8.315,0,0,0,1.9.7,5.637,5.637,0,0,1,2.8,1.512,3.72,3.72,0,0,1,.875,2.563A3.63,3.63,0,0,1,340.9,18.2,6.331,6.331,0,0,1,336.921,19.325ZM18.884,49h-3.65q0-4.15.275-8.388t.825-8.487h4.525l3.95,10.25,3.95-10.25h4.45q.55,4.225.825,8.45T34.309,49h-3.7v-.75q0-1.325-.025-2.862T30.446,41.9q-.112-1.95-.413-4.525l-3.7,9.825H23.209l-3.75-9.95q-.325,2.7-.45,5.612T18.884,49Zm24.05.325a6.7,6.7,0,0,1-5-1.825,6.88,6.88,0,0,1-1.8-5.05,7.794,7.794,0,0,1,.775-3.575,5.856,5.856,0,0,1,2.175-2.388,6.069,6.069,0,0,1,3.25-.862,5.18,5.18,0,0,1,4.125,1.725,7,7,0,0,1,1.5,4.75v1.625h-8.15q.6,2.65,3.65,2.65a7.473,7.473,0,0,0,1.95-.263,6.229,6.229,0,0,0,1.725-.737V48.3a5.951,5.951,0,0,1-1.838.75A9.817,9.817,0,0,1,42.934,49.325ZM39.759,41.2h4.7a3.28,3.28,0,0,0-.65-2.038,2.042,2.042,0,0,0-1.65-.712Q40.109,38.45,39.759,41.2Zm14.925,8.125a4.879,4.879,0,0,1-2.812-.825A5.318,5.318,0,0,1,50,46.15a9.054,9.054,0,0,1-.662-3.625,9.066,9.066,0,0,1,.675-3.663,5.525,5.525,0,0,1,1.9-2.388,4.833,4.833,0,0,1,2.825-.85,4.167,4.167,0,0,1,3.35,1.475V31h3.8V49H58.559l-.2-1.575a3.773,3.773,0,0,1-1.512,1.4A4.62,4.62,0,0,1,54.684,49.325Zm1-3.075a2.1,2.1,0,0,0,1.838-.987,4.923,4.923,0,0,0,.663-2.763,5.041,5.041,0,0,0-.663-2.8,2.2,2.2,0,0,0-3.675-.013,4.923,4.923,0,0,0-.663,2.763,5.041,5.041,0,0,0,.663,2.8A2.088,2.088,0,0,0,55.684,46.25ZM64.434,49V35.95h3.8V49Zm1.9-14.575a2.17,2.17,0,0,1-1.562-.612,2.173,2.173,0,0,1,0-3.075,2.315,2.315,0,0,1,3.137,0,2.2,2.2,0,0,1,0,3.075A2.158,2.158,0,0,1,66.334,34.425Zm9.225,14.9a4.879,4.879,0,0,1-2.812-.825,5.318,5.318,0,0,1-1.875-2.35,9.054,9.054,0,0,1-.663-3.625,9.066,9.066,0,0,1,.675-3.663,5.525,5.525,0,0,1,1.9-2.388,4.833,4.833,0,0,1,2.825-.85,4.168,4.168,0,0,1,3.35,1.475V31h3.8V49H79.434l-.2-1.575a3.773,3.773,0,0,1-1.512,1.4A4.62,4.62,0,0,1,75.559,49.325Zm1-3.075a2.1,2.1,0,0,0,1.838-.987,4.924,4.924,0,0,0,.662-2.763,5.041,5.041,0,0,0-.662-2.8,2.2,2.2,0,0,0-3.675-.013,4.924,4.924,0,0,0-.662,2.763,5.041,5.041,0,0,0,.662,2.8A2.088,2.088,0,0,0,76.559,46.25Zm12.45,3.075a4.512,4.512,0,0,1-3.1-1.038A3.532,3.532,0,0,1,84.734,45.5a4.018,4.018,0,0,1,1.725-3.463A8.265,8.265,0,0,1,91.334,40.8q.275,0,.55.013t.55.037q-.25-2.2-2.825-2.2a6.227,6.227,0,0,0-3.7,1.175V36.85a7.215,7.215,0,0,1,4.325-1.225,5.878,5.878,0,0,1,4.3,1.475,5.661,5.661,0,0,1,1.5,4.225V49h-3.1l-.2-1.375a3.834,3.834,0,0,1-1.562,1.25A5.153,5.153,0,0,1,89.009,49.325Zm3.45-6.125q-.375-.025-.95-.025a4.733,4.733,0,0,0-2.362.487,1.527,1.527,0,0,0-.838,1.388,1.565,1.565,0,0,0,.5,1.225,1.906,1.906,0,0,0,1.325.45,2.2,2.2,0,0,0,1.65-.7,2.389,2.389,0,0,0,.675-1.725Zm10.1,6.125a10.686,10.686,0,0,1-2.325-.25,7.258,7.258,0,0,1-1.975-.725V45.375a7.027,7.027,0,0,0,1.862.8,7.742,7.742,0,0,0,2.038.275q2,0,2-1.225a.957.957,0,0,0-.513-.825,8.247,8.247,0,0,0-1.987-.725q-3.45-.975-3.45-3.95a3.531,3.531,0,0,1,1.513-2.975,6.61,6.61,0,0,1,4.037-1.125,8.558,8.558,0,0,1,1.838.2,5.6,5.6,0,0,1,1.537.55V39.3a6.946,6.946,0,0,0-3.275-.8q-1.925,0-1.925,1.125a.892.892,0,0,0,.475.775,8.314,8.314,0,0,0,1.9.7,5.637,5.637,0,0,1,2.8,1.513,3.72,3.72,0,0,1,.875,2.563,3.63,3.63,0,0,1-1.45,3.025A6.331,6.331,0,0,1,102.559,49.325Zm16.35,0A4.879,4.879,0,0,1,116.1,48.5a5.318,5.318,0,0,1-1.875-2.35,9.054,9.054,0,0,1-.663-3.625,9.066,9.066,0,0,1,.675-3.663,5.525,5.525,0,0,1,1.9-2.388,4.833,4.833,0,0,1,2.825-.85,4.167,4.167,0,0,1,3.35,1.475V31h3.8V49h-3.325l-.2-1.575a3.773,3.773,0,0,1-1.512,1.4A4.62,4.62,0,0,1,118.909,49.325Zm1-3.075a2.1,2.1,0,0,0,1.837-.987,4.923,4.923,0,0,0,.663-2.763,5.041,5.041,0,0,0-.663-2.8,2.2,2.2,0,0,0-3.675-.013,4.924,4.924,0,0,0-.662,2.763,5.041,5.041,0,0,0,.662,2.8A2.088,2.088,0,0,0,119.909,46.25Zm12.45,3.075a4.512,4.512,0,0,1-3.1-1.038,3.532,3.532,0,0,1-1.175-2.787,4.018,4.018,0,0,1,1.725-3.463,8.265,8.265,0,0,1,4.875-1.237q.275,0,.55.013t.55.037q-.25-2.2-2.825-2.2a6.227,6.227,0,0,0-3.7,1.175V36.85a7.215,7.215,0,0,1,4.325-1.225,5.878,5.878,0,0,1,4.3,1.475,5.661,5.661,0,0,1,1.5,4.225V49h-3.1l-.2-1.375a3.834,3.834,0,0,1-1.562,1.25A5.153,5.153,0,0,1,132.359,49.325Zm3.45-6.125q-.375-.025-.95-.025a4.733,4.733,0,0,0-2.363.487,1.527,1.527,0,0,0-.837,1.388,1.565,1.565,0,0,0,.5,1.225,1.906,1.906,0,0,0,1.325.45,2.2,2.2,0,0,0,1.65-.7,2.39,2.39,0,0,0,.675-1.725Zm18.275,6.125a9.022,9.022,0,0,1-4.475-1.062,7.43,7.43,0,0,1-2.95-2.987,9.363,9.363,0,0,1-1.05-4.55,9.748,9.748,0,0,1,1.075-4.662,7.828,7.828,0,0,1,3-3.138,8.656,8.656,0,0,1,4.45-1.125,9.045,9.045,0,0,1,2.25.275,6.246,6.246,0,0,1,1.85.775V36.3a5.423,5.423,0,0,0-1.675-.825,6.763,6.763,0,0,0-2-.3,4.676,4.676,0,0,0-3.6,1.425,5.577,5.577,0,0,0-1.325,3.95,5.587,5.587,0,0,0,1.35,3.925,4.674,4.674,0,0,0,3.625,1.475,6.036,6.036,0,0,0,3.925-1.275V48.15a5.716,5.716,0,0,1-1.937.862A9.837,9.837,0,0,1,154.084,49.325Zm12.35,0a6.491,6.491,0,0,1-3.35-.838,5.7,5.7,0,0,1-2.212-2.375,8.708,8.708,0,0,1,0-7.237,5.74,5.74,0,0,1,2.225-2.4,7.047,7.047,0,0,1,6.688-.012A5.7,5.7,0,0,1,172,38.838a8.708,8.708,0,0,1,0,7.237,5.766,5.766,0,0,1-2.213,2.4A6.416,6.416,0,0,1,166.434,49.325Zm0-3.075a2.1,2.1,0,0,0,1.837-.987,4.924,4.924,0,0,0,.663-2.763,5.041,5.041,0,0,0-.663-2.8,2.2,2.2,0,0,0-3.675-.013,4.924,4.924,0,0,0-.662,2.763,5.041,5.041,0,0,0,.662,2.8A2.088,2.088,0,0,0,166.434,46.25ZM174.759,49V35.95h3.325l.2,1.5a4.427,4.427,0,0,1,3.775-1.825,4.134,4.134,0,0,1,3.275,1.4,5.416,5.416,0,0,1,1.225,3.7V49h-3.8V41.325q0-2.55-2.05-2.55a1.944,1.944,0,0,0-1.575.688,2.812,2.812,0,0,0-.575,1.862V49Zm19.05.325A4.879,4.879,0,0,1,191,48.5a5.318,5.318,0,0,1-1.875-2.35,9.054,9.054,0,0,1-.663-3.625,9.066,9.066,0,0,1,.675-3.663,5.525,5.525,0,0,1,1.9-2.388,4.833,4.833,0,0,1,2.825-.85,4.167,4.167,0,0,1,3.35,1.475V31h3.8V49h-3.325l-.2-1.575a3.773,3.773,0,0,1-1.513,1.4A4.62,4.62,0,0,1,193.809,49.325Zm1-3.075a2.1,2.1,0,0,0,1.837-.987,4.924,4.924,0,0,0,.663-2.763,5.041,5.041,0,0,0-.663-2.8,2.2,2.2,0,0,0-3.675-.013,4.924,4.924,0,0,0-.662,2.763,5.041,5.041,0,0,0,.662,2.8A2.088,2.088,0,0,0,194.809,46.25Zm8.75,2.75V35.95h3.8V49Zm1.9-14.575a2.17,2.17,0,0,1-1.562-.612,2.173,2.173,0,0,1,0-3.075,2.315,2.315,0,0,1,3.137,0,2.2,2.2,0,0,1,0,3.075A2.158,2.158,0,0,1,205.459,34.425Zm10.475,14.9a7.059,7.059,0,0,1-3.5-.825,5.686,5.686,0,0,1-2.288-2.362,7.682,7.682,0,0,1-.812-3.638,7.368,7.368,0,0,1,.85-3.6,6.093,6.093,0,0,1,2.363-2.413,6.967,6.967,0,0,1,3.512-.862,6.81,6.81,0,0,1,1.75.225,4.264,4.264,0,0,1,1.35.575V39.5a4.273,4.273,0,0,0-2.625-.8,3.141,3.141,0,0,0-2.462.988,3.988,3.988,0,0,0-.887,2.763,4.022,4.022,0,0,0,.912,2.775,3.131,3.131,0,0,0,2.463,1.025,4.3,4.3,0,0,0,2.75-.85v3.05a4.34,4.34,0,0,1-1.45.638A7.521,7.521,0,0,1,215.934,49.325Zm5.7-.325V35.95h3.8V49Zm1.9-14.575a2.17,2.17,0,0,1-1.562-.612,2.173,2.173,0,0,1,0-3.075,2.315,2.315,0,0,1,3.137,0,2.2,2.2,0,0,1,0,3.075A2.158,2.158,0,0,1,223.534,34.425Zm10.225,14.9a6.491,6.491,0,0,1-3.35-.838,5.7,5.7,0,0,1-2.212-2.375,8.708,8.708,0,0,1,0-7.237,5.74,5.74,0,0,1,2.225-2.4,7.047,7.047,0,0,1,6.688-.012,5.7,5.7,0,0,1,2.213,2.375,8.708,8.708,0,0,1,0,7.237,5.766,5.766,0,0,1-2.213,2.4A6.416,6.416,0,0,1,233.759,49.325Zm0-3.075a2.1,2.1,0,0,0,1.837-.987,4.924,4.924,0,0,0,.663-2.763,5.041,5.041,0,0,0-.663-2.8,2.2,2.2,0,0,0-3.675-.013,4.924,4.924,0,0,0-.662,2.763,5.041,5.041,0,0,0,.662,2.8A2.088,2.088,0,0,0,233.759,46.25ZM242.084,49V35.95h3.325l.2,1.5a4.427,4.427,0,0,1,3.775-1.825,4.134,4.134,0,0,1,3.275,1.4,5.416,5.416,0,0,1,1.225,3.7V49h-3.8V41.325q0-2.55-2.05-2.55a1.944,1.944,0,0,0-1.575.688,2.812,2.812,0,0,0-.575,1.862V49Zm17.975.325a4.512,4.512,0,0,1-3.1-1.038,3.532,3.532,0,0,1-1.175-2.787,4.018,4.018,0,0,1,1.725-3.463,8.265,8.265,0,0,1,4.875-1.237q.275,0,.55.013t.55.037q-.25-2.2-2.825-2.2a6.227,6.227,0,0,0-3.7,1.175V36.85a7.215,7.215,0,0,1,4.325-1.225,5.878,5.878,0,0,1,4.3,1.475,5.661,5.661,0,0,1,1.5,4.225V49h-3.1l-.2-1.375a3.834,3.834,0,0,1-1.562,1.25A5.153,5.153,0,0,1,260.059,49.325Zm3.45-6.125q-.375-.025-.95-.025a4.733,4.733,0,0,0-2.363.487,1.527,1.527,0,0,0-.837,1.388,1.565,1.565,0,0,0,.5,1.225,1.906,1.906,0,0,0,1.325.45,2.2,2.2,0,0,0,1.65-.7,2.39,2.39,0,0,0,.675-1.725Zm6.05,5.8V31h3.8V49Zm6.35,0V35.95h3.8V49Zm1.9-14.575a2.17,2.17,0,0,1-1.562-.612,2.173,2.173,0,0,1,0-3.075,2.315,2.315,0,0,1,3.138,0,2.2,2.2,0,0,1,0,3.075A2.158,2.158,0,0,1,277.809,34.425Zm9.225,14.9a4.879,4.879,0,0,1-2.812-.825,5.318,5.318,0,0,1-1.875-2.35,9.054,9.054,0,0,1-.662-3.625,9.066,9.066,0,0,1,.675-3.663,5.524,5.524,0,0,1,1.9-2.388,4.833,4.833,0,0,1,2.825-.85,4.168,4.168,0,0,1,3.35,1.475V31h3.8V49h-3.325l-.2-1.575a3.773,3.773,0,0,1-1.513,1.4A4.62,4.62,0,0,1,287.034,49.325Zm1-3.075a2.1,2.1,0,0,0,1.838-.987,4.924,4.924,0,0,0,.662-2.763,5.041,5.041,0,0,0-.662-2.8,2.2,2.2,0,0,0-3.675-.013,4.923,4.923,0,0,0-.663,2.763,5.041,5.041,0,0,0,.663,2.8A2.088,2.088,0,0,0,288.034,46.25Zm12.45,3.075a4.512,4.512,0,0,1-3.1-1.038,3.532,3.532,0,0,1-1.175-2.787,4.018,4.018,0,0,1,1.725-3.463,8.265,8.265,0,0,1,4.875-1.237q.275,0,.55.013t.55.037q-.25-2.2-2.825-2.2a6.227,6.227,0,0,0-3.7,1.175V36.85a7.215,7.215,0,0,1,4.325-1.225,5.878,5.878,0,0,1,4.3,1.475,5.661,5.661,0,0,1,1.5,4.225V49h-3.1l-.2-1.375a3.834,3.834,0,0,1-1.562,1.25A5.153,5.153,0,0,1,300.484,49.325Zm3.45-6.125q-.375-.025-.95-.025a4.733,4.733,0,0,0-2.363.487,1.527,1.527,0,0,0-.837,1.388,1.565,1.565,0,0,0,.5,1.225,1.906,1.906,0,0,0,1.325.45,2.2,2.2,0,0,0,1.65-.7,2.39,2.39,0,0,0,.675-1.725Zm10.825,6.125a4.879,4.879,0,0,1-2.812-.825,5.318,5.318,0,0,1-1.875-2.35,9.054,9.054,0,0,1-.662-3.625,9.066,9.066,0,0,1,.675-3.663,5.524,5.524,0,0,1,1.9-2.388,4.833,4.833,0,0,1,2.825-.85,4.168,4.168,0,0,1,3.35,1.475V31h3.8V49h-3.325l-.2-1.575a3.773,3.773,0,0,1-1.513,1.4A4.62,4.62,0,0,1,314.759,49.325Zm1-3.075a2.1,2.1,0,0,0,1.838-.987,4.924,4.924,0,0,0,.662-2.763,5.041,5.041,0,0,0-.662-2.8,2.2,2.2,0,0,0-3.675-.013,4.923,4.923,0,0,0-.663,2.763,5.041,5.041,0,0,0,.663,2.8A2.088,2.088,0,0,0,315.759,46.25Zm14.975,3.075a6.7,6.7,0,0,1-5-1.825,6.88,6.88,0,0,1-1.8-5.05,7.794,7.794,0,0,1,.775-3.575,5.856,5.856,0,0,1,2.175-2.388,6.069,6.069,0,0,1,3.25-.862,5.18,5.18,0,0,1,4.125,1.725,7,7,0,0,1,1.5,4.75v1.625h-8.15q.6,2.65,3.65,2.65a7.473,7.473,0,0,0,1.95-.263,6.229,6.229,0,0,0,1.725-.737V48.3a5.951,5.951,0,0,1-1.838.75A9.817,9.817,0,0,1,330.734,49.325ZM327.559,41.2h4.7a3.28,3.28,0,0,0-.65-2.038,2.042,2.042,0,0,0-1.65-.712Q327.909,38.45,327.559,41.2Zm18.5,7.8h-3.925V32.125h3.925Zm6.825,0h-3.925V32.125h3.925Zm6.825,0h-3.925V32.125h3.925Z" transform="translate(472 25073.309)" fill="#fff"/>
  </g>
</svg>
